<svg xmlns="http://www.w3.org/2000/svg" width="760" height="280"><rect width="100%" height="100%" fill="#fff"/><text x="24" y="26" font-size="16" font-family="Arial">Full observed RadonEye series with documented cycles</text><polyline fill="none" stroke="#123c69" stroke-width="2" points="36.0,231.1 38.7,229.6 41.3,225.8 44.0,229.6 46.6,226.6 49.3,225.8 51.9,229.6 54.6,229.6 57.3,228.1 59.9,212.2 62.6,217.5 65.2,214.5 67.9,224.3 70.5,228.1 73.2,216.0 75.8,231.1 78.5,222.8 81.2,225.8 83.8,226.6 86.5,221.3 89.1,231.9 91.8,237.2 94.4,231.9 97.1,231.9 99.8,240.2 102.4,231.9 105.1,233.4 107.7,231.9 110.4,231.1 113.0,233.4 115.7,222.8 118.3,217.5 121.0,214.5 123.7,190.3 126.3,208.5 129.0,193.3 131.6,208.5 134.3,206.9 136.9,188.0 139.6,188.0 142.3,181.2 144.9,184.2 147.6,189.5 150.2,186.5 152.9,188.0 155.5,179.7 158.2,169.1 160.8,179.7 163.5,171.4 166.2,181.2 168.8,160.8 171.5,141.9 174.1,163.8 176.8,162.3 179.4,150.2 182.1,159.3 184.8,137.4 187.4,151.0 190.1,140.4 192.7,137.4 195.4,159.3 198.0,145.7 200.7,130.5 203.4,141.9 206.0,132.1 208.7,125.3 211.3,137.4 214.0,108.6 216.6,129.0 219.3,92.0 221.9,78.4 224.6,93.5 227.3,88.2 229.9,76.8 232.6,83.7 235.2,85.2 237.9,95.0 240.5,86.7 243.2,121.5 245.9,108.6 248.5,52.6 251.2,79.9 253.8,97.3 256.5,68.5 259.1,101.8 261.8,95.0 264.4,141.9 267.1,90.5 269.8,118.4 272.4,107.1 275.1,105.6 277.7,73.8 280.4,78.4 283.0,67.0 285.7,62.5 288.4,79.9 291.0,55.7 293.7,36.0 296.3,83.7 299.0,88.2 301.6,64.0 304.3,68.5 306.9,64.0 309.6,78.4 312.3,50.4 314.9,75.3 317.6,78.4 320.2,101.8 322.9,75.3 325.5,105.6 328.2,85.2 330.9,92.0 333.5,98.8 336.2,96.5 338.8,73.1 341.5,101.8 344.1,76.8 346.8,137.4 349.5,219.0 352.1,222.8 354.8,237.2 357.4,240.2 360.1,244.0 362.7,231.1 365.4,237.2 368.0,231.1 370.7,231.9 373.4,237.2 376.0,234.9 378.7,231.9 381.3,226.6 384.0,237.2 386.6,238.7 389.3,222.8 392.0,224.3 394.6,225.8 397.3,231.9 399.9,233.4 402.6,241.7 405.2,241.7 407.9,240.2 410.5,240.2 413.2,237.2 415.9,240.2 418.5,234.9 421.2,237.2 423.8,234.9 426.5,238.7 429.1,244.0 431.8,237.2 434.5,234.9 437.1,233.4 439.8,231.9 442.4,226.6 445.1,237.2 447.7,234.9 450.4,237.2 453.1,237.2 455.7,237.2 458.4,238.7 461.0,231.1 463.7,237.2 466.3,237.2 469.0,241.7 471.6,237.2 474.3,234.9 477.0,231.9 479.6,231.1 482.3,229.6 484.9,225.8 487.6,229.6 490.2,226.6 492.9,225.8 495.6,229.6 498.2,229.6 500.9,228.1 503.5,212.2 506.2,217.5 508.8,214.5 511.5,224.3 514.1,228.1 516.8,216.0 519.5,231.1 522.1,222.8 524.8,225.8 527.4,226.6 530.1,221.3 532.7,231.9 535.4,237.2 538.1,231.9 540.7,231.9 543.4,240.2 546.0,231.9 548.7,233.4 551.3,231.9 554.0,231.1 556.6,233.4 559.3,222.8 562.0,217.5 564.6,214.5 567.3,190.3 569.9,208.5 572.6,193.3 575.2,208.5 577.9,206.9 580.6,188.0 583.2,188.0 585.9,181.2 588.5,184.2 591.2,189.5 593.8,186.5 596.5,188.0 599.2,179.7 601.8,169.1 604.5,179.7 607.1,171.4 609.8,181.2 612.4,160.8 615.1,141.9 617.7,163.8 620.4,162.3 623.1,150.2 625.7,159.3 628.4,137.4 631.0,151.0 633.7,140.4 636.3,137.4 639.0,159.3 641.7,145.7 644.3,130.5 647.0,141.9 649.6,132.1 652.3,125.3 654.9,137.4 657.6,108.6 660.2,129.0 662.9,92.0 665.6,78.4 668.2,93.5 670.9,88.2 673.5,76.8 676.2,83.7 678.8,85.2 681.5,95.0 684.2,86.7 686.8,121.5 689.5,108.6 692.1,52.6 694.8,79.9 697.4,97.3 700.1,68.5 702.7,101.8 705.4,95.0 708.1,141.9 710.7,90.5 713.4,118.4 716.0,107.1 718.7,105.6 721.3,73.8 724.0,78.4"/></svg>