<svg xmlns="http://www.w3.org/2000/svg" width="760" height="280"><rect width="100%" height="100%" fill="#fff"/><text x="24" y="26" font-size="16" font-family="Arial">Experiment A F1 observed vs predicted with future-observation interval</text><polyline fill="none" stroke="#123c69" stroke-width="2" points="36.0,231.1 40.1,229.6 44.3,225.8 48.4,229.6 52.6,226.6 56.7,225.8 60.9,229.6 65.0,229.6 69.2,228.1 73.3,212.2 77.4,217.5 81.6,214.5 85.7,224.3 89.9,228.1 94.0,216.0 98.2,231.1 102.3,222.8 106.5,225.8 110.6,226.6 114.7,221.3 118.9,231.9 123.0,237.2 127.2,231.9 131.3,231.9 135.5,240.2 139.6,231.9 143.8,233.4 147.9,231.9 152.0,231.1 156.2,233.4 160.3,222.8 164.5,217.5 168.6,214.5 172.8,190.3 176.9,208.5 181.1,193.3 185.2,208.5 189.3,206.9 193.5,188.0 197.6,188.0 201.8,181.2 205.9,184.2 210.1,189.5 214.2,186.5 218.4,188.0 222.5,179.7 226.7,169.1 230.8,179.7 234.9,171.4 239.1,181.2 243.2,160.8 247.4,141.9 251.5,163.8 255.7,162.3 259.8,150.2 264.0,159.3 268.1,137.4 272.2,151.0 276.4,140.4 280.5,137.4 284.7,159.3 288.8,145.7 293.0,130.5 297.1,141.9 301.3,132.1 305.4,125.3 309.5,137.4 313.7,108.6 317.8,129.0 322.0,92.0 326.1,78.4 330.3,93.5 334.4,88.2 338.6,76.8 342.7,83.7 346.8,85.2 351.0,95.0 355.1,86.7 359.3,121.5 363.4,108.6 367.6,52.6 371.7,79.9 375.9,97.3 380.0,68.5 384.1,101.8 388.3,95.0 392.4,141.9 396.6,90.5 400.7,118.4 404.9,107.1 409.0,105.6 413.2,73.8 417.3,78.4 421.4,67.0 425.6,62.5 429.7,79.9 433.9,55.7 438.0,36.0 442.2,83.7 446.3,88.2 450.5,64.0 454.6,68.5 458.7,64.0 462.9,78.4 467.0,50.4 471.2,75.3 475.3,78.4 479.5,101.8 483.6,75.3 487.8,105.6 491.9,85.2 496.0,92.0 500.2,98.8 504.3,96.5 508.5,73.1 512.6,101.8 516.8,76.8 520.9,137.4 525.1,219.0 529.2,222.8 533.3,237.2 537.5,240.2 541.6,244.0 545.8,231.1 549.9,237.2 554.1,231.1 558.2,231.9 562.4,237.2 566.5,234.9 570.7,231.9 574.8,226.6 578.9,237.2 583.1,238.7 587.2,222.8 591.4,224.3 595.5,225.8 599.7,231.9 603.8,233.4 608.0,241.7 612.1,241.7 616.2,240.2 620.4,240.2 624.5,237.2 628.7,240.2 632.8,234.9 637.0,237.2 641.1,234.9 645.3,238.7 649.4,244.0 653.5,237.2 657.7,234.9 661.8,233.4 666.0,231.9 670.1,226.6 674.3,237.2 678.4,234.9 682.6,237.2 686.7,237.2 690.8,237.2 695.0,238.7 699.1,231.1 703.3,237.2 707.4,237.2 711.6,241.7 715.7,237.2 719.9,234.9 724.0,231.9"/><polyline fill="none" stroke="#2f6fdf" stroke-width="2" points="36.0,231.4 40.1,229.3 44.3,227.6 48.4,224.4 52.6,226.5 56.7,224.7 60.9,223.7 65.0,226.3 69.2,226.9 73.3,225.9 77.4,213.8 81.6,214.9 85.7,212.9 89.9,219.9 94.0,224.3 98.2,216.2 102.3,225.7 106.5,221.7 110.6,223.0 114.7,223.9 118.9,220.1 123.0,227.2 127.2,232.8 131.3,230.2 135.5,229.5 139.6,235.6 143.8,230.8 147.9,230.8 152.0,229.7 156.2,228.9 160.3,230.4 164.5,222.8 168.6,217.0 172.8,213.4 176.9,194.4 181.1,203.6 185.2,194.4 189.3,203.6 193.5,204.6 197.6,190.6 201.8,187.4 205.9,181.5 210.1,182.4 214.2,186.6 218.4,185.3 222.5,186.2 226.7,180.1 230.8,170.7 234.9,176.5 239.1,171.6 243.2,177.9 247.4,164.0 251.5,146.5 255.7,159.0 259.8,160.7 264.0,152.0 268.1,156.8 272.2,141.5 276.4,148.1 280.5,141.7 284.7,138.0 288.8,153.6 293.0,147.0 297.1,134.1 301.3,139.6 305.4,133.5 309.5,127.0 313.7,134.5 317.8,114.7 322.0,125.4 326.1,100.1 330.3,84.0 334.4,91.6 338.6,89.4 342.7,80.4 346.8,83.4 351.0,85.2 355.1,93.0 359.3,88.6 363.4,113.7 367.6,109.9 371.7,66.9 375.9,77.4 380.0,92.9 384.1,74.9 388.3,95.7 392.4,95.5 396.6,130.6 400.7,100.2 404.9,114.1 409.0,108.8 413.2,106.5 417.3,82.0 421.4,79.8 425.6,70.7 429.7,65.2 433.9,77.0 438.0,61.6 442.2,43.2 446.3,74.7 450.5,85.5 454.6,69.8 458.7,69.5 462.9,66.1 467.0,76.1 471.2,57.4 475.3,71.8 479.5,77.4 483.6,96.3 487.8,80.8 491.9,100.0 496.0,89.1 500.2,91.6 504.3,97.4 508.5,97.0 512.6,79.3 516.8,96.8 520.9,82.1 525.1,225.1 529.2,225.1 533.3,225.1 537.5,225.1 541.6,233.9 545.8,239.5 549.9,231.1 554.1,233.7 558.2,229.8 562.4,229.5 566.5,233.3 570.7,232.5 574.8,230.1 578.9,225.5 583.1,232.4 587.2,235.2 591.4,223.9 595.5,222.4 599.7,223.2 603.8,227.9 608.0,230.2 612.1,236.9 616.2,238.5 620.4,237.7 624.5,237.5 628.7,235.2 632.8,237.0 637.0,233.4 641.1,234.3 645.3,232.8 649.4,235.3 653.5,239.8 657.7,235.8 661.8,233.1 666.0,231.4 670.1,229.8 674.3,225.5 678.4,232.4 682.6,232.3 686.7,234.0 690.8,234.4 695.0,234.5 699.1,235.7 703.3,230.2 707.4,233.5 711.6,234.3 715.7,237.9 719.9,235.3 724.0,233.0"/></svg>