<svg xmlns="http://www.w3.org/2000/svg" width="760" height="280"><rect width="100%" height="100%" fill="#fff"/><text x="24" y="26" font-size="16" font-family="Arial">Experiment B F1 observed vs predicted with future-observation interval</text><polyline fill="none" stroke="#123c69" stroke-width="2" points="36.0,235.9 39.6,230.1 43.2,235.9 46.9,237.4 50.5,238.9 54.1,233.7 57.7,237.4 61.3,228.6 65.0,230.8 68.6,232.3 72.2,230.8 75.8,223.5 79.5,233.7 83.1,235.9 86.7,235.9 90.3,238.9 93.9,242.5 97.6,237.4 101.2,225.7 104.8,237.4 108.4,244.0 112.0,235.9 115.7,240.3 119.3,238.9 122.9,233.7 126.5,233.7 130.1,235.9 133.8,230.8 137.4,232.3 141.0,233.7 144.6,235.9 148.3,233.7 151.9,209.6 155.5,189.8 159.1,197.1 162.7,178.1 166.4,188.3 170.0,167.1 173.6,189.8 177.2,180.3 180.8,178.8 184.5,163.4 188.1,171.5 191.7,156.8 195.3,150.3 198.9,143.7 202.6,160.5 206.2,164.9 209.8,138.5 213.4,114.4 217.1,137.1 220.7,127.5 224.3,104.1 227.9,110.0 231.5,122.4 235.2,112.9 238.8,108.5 242.4,104.8 246.0,119.5 249.6,126.1 253.3,131.2 256.9,106.3 260.5,123.9 264.1,93.9 267.7,110.0 271.4,126.1 275.0,119.5 278.6,95.3 282.2,142.2 285.9,127.5 289.5,116.6 293.1,124.6 296.7,100.5 300.3,114.4 304.0,71.2 307.6,108.5 311.2,96.8 314.8,80.7 318.4,84.3 322.1,80.7 325.7,80.7 329.3,98.3 332.9,90.2 336.5,92.4 340.2,87.3 343.8,79.2 347.4,92.4 351.0,95.3 354.7,104.8 358.3,92.4 361.9,79.2 365.5,100.5 369.1,93.9 372.8,82.1 376.4,77.7 380.0,64.6 383.6,64.6 387.2,47.0 390.9,36.0 394.5,69.7 398.1,74.1 401.7,60.2 405.3,47.7 409.0,53.6 412.6,69.7 416.2,45.5 419.8,85.8 423.5,75.5 427.1,63.1 430.7,74.1 434.3,44.1 437.9,79.2 441.6,93.9 445.2,77.7 448.8,57.2 452.4,82.1 456.0,82.1 459.7,79.2 463.3,77.0 466.9,85.8 470.5,84.3 474.1,84.3 477.8,69.7 481.4,79.2 485.0,90.2 488.6,60.2 492.3,88.7 495.9,64.6 499.5,53.6 503.1,90.2 506.7,77.7 510.4,58.7 514.0,55.0 517.6,60.2 521.2,92.4 524.8,110.0 528.5,121.0 532.1,99.7 535.7,110.0 539.3,88.7 542.9,69.7 546.6,77.0 550.2,210.3 553.8,228.6 557.4,219.8 561.1,228.6 564.7,230.8 568.3,225.7 571.9,233.7 575.5,233.7 579.2,232.3 582.8,230.1 586.4,233.7 590.0,223.5 593.6,223.5 597.3,222.0 600.9,232.3 604.5,230.1 608.1,230.1 611.7,230.8 615.4,230.1 619.0,235.9 622.6,228.6 626.2,237.4 629.9,238.9 633.5,235.9 637.1,233.7 640.7,240.3 644.3,237.4 648.0,237.4 651.6,235.9 655.2,242.5 658.8,242.5 662.4,242.5 666.1,235.9 669.7,238.9 673.3,235.9 676.9,235.9 680.5,232.3 684.2,230.1 687.8,237.4 691.4,235.9 695.0,230.1 698.7,237.4 702.3,232.3 705.9,237.4 709.5,240.3 713.1,237.4 716.8,235.9 720.4,235.9 724.0,237.4"/><polyline fill="none" stroke="#2f6fdf" stroke-width="2" points="36.0,233.5 39.6,232.6 43.2,228.8 46.9,230.8 50.5,232.5 54.1,234.0 57.7,231.5 61.3,232.7 65.0,228.0 68.6,227.5 72.2,228.1 75.8,227.5 79.5,222.9 83.1,227.3 86.7,230.3 90.3,231.4 93.9,233.6 97.6,236.6 101.2,234.7 104.8,226.9 108.4,231.0 112.0,236.5 115.7,233.8 119.3,235.4 122.9,235.1 126.5,231.9 130.1,230.7 133.8,231.6 137.4,228.8 141.0,228.7 144.6,229.5 148.3,231.1 151.9,230.4 155.5,215.7 159.1,198.2 162.7,196.1 166.4,183.8 170.0,185.3 173.6,173.2 177.2,182.2 180.8,179.9 184.5,178.2 188.1,168.3 191.7,169.4 195.3,161.0 198.9,153.9 202.6,147.3 206.2,154.9 209.8,160.4 213.4,146.7 217.1,127.0 220.7,133.2 224.3,129.8 227.9,114.5 231.5,112.2 235.2,118.8 238.8,115.6 242.4,111.8 246.0,108.1 249.6,115.5 253.3,122.2 256.9,127.9 260.5,115.1 264.1,120.8 267.7,104.9 271.4,108.6 275.0,119.6 278.6,119.9 282.2,105.5 285.9,128.1 289.5,127.9 293.1,121.2 296.7,123.5 300.3,109.9 304.0,113.1 307.6,88.4 311.2,101.5 314.8,99.4 318.4,89.0 322.1,87.2 325.7,84.4 329.3,83.3 332.9,93.4 336.5,92.4 340.2,93.3 343.8,90.6 347.4,84.8 351.0,90.5 354.7,94.4 358.3,101.5 361.9,96.8 365.5,87.1 369.1,96.2 372.8,95.6 376.4,88.4 380.0,83.1 383.6,73.1 387.2,69.4 390.9,57.5 394.5,46.4 398.1,62.3 401.7,71.0 405.3,66.0 409.0,56.6 412.6,56.6 416.2,66.2 419.8,55.4 423.5,75.4 427.1,76.8 430.7,69.9 434.3,73.9 437.9,57.4 441.6,72.2 445.2,86.6 448.8,82.4 452.4,68.5 456.0,78.2 459.7,81.8 463.3,81.4 466.9,80.0 470.5,84.7 474.1,85.6 477.8,85.9 481.4,77.3 485.0,79.7 488.6,87.2 492.3,72.1 495.9,83.5 499.5,73.3 503.1,62.9 506.7,80.9 510.4,80.2 514.0,68.6 517.6,62.0 521.2,62.5 524.8,82.1 528.5,100.0 532.1,113.3 535.7,105.6 539.3,108.9 542.9,97.4 546.6,81.6 550.2,80.1 553.8,220.9 557.4,229.8 561.1,229.8 564.7,226.9 568.3,227.0 571.9,224.0 575.5,227.7 579.2,229.1 582.8,228.8 586.4,227.3 590.0,229.0 593.6,223.5 597.3,221.4 600.9,219.7 604.5,225.2 608.1,226.0 611.7,226.3 615.4,226.8 619.0,226.6 622.6,230.0 626.2,226.9 629.9,231.0 633.5,233.4 637.1,232.6 640.7,231.0 644.3,234.3 648.0,233.8 651.6,233.6 655.2,232.7 658.8,236.3 662.4,237.6 666.1,238.1 669.7,234.4 673.3,234.7 676.9,233.1 680.5,232.5 684.2,230.0 687.8,227.8 691.4,231.3 695.0,231.8 698.7,228.5 702.3,231.6 705.9,229.7 709.5,232.1 713.1,234.7 716.8,234.0 720.4,232.8 724.0,232.4"/></svg>