<svg xmlns="http://www.w3.org/2000/svg" width="760" height="280"><rect width="100%" height="100%" fill="#fff"/><text x="24" y="26" font-size="16" font-family="Arial">Rapid-removal focus: F1 versus F2</text><polyline fill="none" stroke="#123c69" stroke-width="2" points="36.0,115.0 88.9,220.5 141.8,225.4 194.8,244.0 247.7,115.0 300.6,220.5 353.5,225.4 406.5,244.0 459.4,209.8 512.3,234.2 565.2,222.5 618.2,209.8 671.1,234.2 724.0,222.5"/><polyline fill="none" stroke="#2f6fdf" stroke-width="2" points="36.0,43.6 88.9,228.4 141.8,228.4 194.8,228.4 247.7,228.4 300.6,228.4 353.5,228.4 406.5,228.4 459.4,36.0 512.3,223.9 565.2,235.8 618.2,209.1 671.1,223.9 724.0,235.8"/></svg>