<svg xmlns="http://www.w3.org/2000/svg" width="760" height="280"><rect width="100%" height="100%" fill="#fff"/><text x="24" y="26" font-size="16" font-family="Arial">Innovation/residual plot with model-validity context</text><polyline fill="none" stroke="#123c69" stroke-width="2" points="36.0,139.0 39.1,138.4 42.3,139.7 45.4,135.7 48.6,148.9 51.7,137.8 54.8,140.9 58.0,149.3 61.1,143.3 64.3,140.1 67.4,113.7 70.6,149.4 73.7,137.5 76.8,159.7 80.0,150.8 83.1,121.5 86.3,168.0 89.4,129.8 92.5,147.0 95.7,144.4 98.8,133.2 102.0,160.9 105.1,153.9 108.3,134.3 111.4,142.1 114.5,157.8 117.7,129.3 120.8,144.4 124.0,140.3 127.1,141.3 130.2,146.8 133.4,124.0 136.5,131.4 139.7,136.0 142.8,97.9 146.0,170.7 149.1,117.1 152.2,166.9 155.4,141.4 158.5,107.7 161.7,138.6 164.8,128.8 167.9,145.6 171.1,151.2 174.2,136.8 177.4,143.7 180.5,126.5 183.7,120.8 186.8,158.3 189.9,127.5 193.1,157.6 196.2,105.6 199.4,103.4 202.5,176.6 205.6,140.9 208.8,118.7 211.9,154.8 215.1,101.9 218.2,161.3 221.4,122.8 224.5,133.0 227.6,178.9 230.8,119.0 233.9,110.9 237.1,157.7 240.2,123.6 243.3,125.9 246.5,160.2 249.6,89.4 252.8,171.7 255.9,75.0 259.1,108.4 262.2,162.8 265.3,130.8 268.5,117.0 271.6,148.4 274.8,141.6 277.9,156.2 281.0,124.8 284.2,200.0 287.3,121.0 290.5,36.0 293.6,177.9 296.7,172.7 299.9,89.2 303.0,193.8 306.2,130.8 309.3,222.7 312.5,53.6 315.6,181.9 318.7,122.1 321.9,134.7 325.0,80.9 328.2,141.2 331.3,117.6 334.4,127.6 337.6,168.0 340.7,96.6 343.9,98.1 347.0,219.6 350.2,153.0 353.3,95.6 356.4,142.1 359.6,129.7 362.7,162.8 365.9,89.2 369.0,178.2 372.1,146.6 375.3,181.0 378.4,94.2 381.6,188.9 384.7,105.9 387.9,147.7 391.0,151.4 394.1,135.5 397.3,95.7 400.4,186.2 403.6,97.3 406.7,244.0 409.8,128.0 413.0,134.9 416.1,160.9 419.3,166.4 422.4,152.1 425.6,120.7 428.7,151.9 431.8,132.8 435.0,143.3 438.1,152.5 441.3,139.7 444.4,137.2 447.5,132.8 450.7,161.0 453.8,147.2 457.0,114.6 460.1,143.0 463.3,145.4 466.4,153.8 469.5,146.5 472.7,158.2 475.8,144.4 479.0,140.5 482.1,142.9 485.2,137.6 488.4,148.0 491.5,133.9 494.7,146.3 497.8,139.2 500.9,149.5 504.1,153.2 507.2,131.7 510.4,138.0 513.5,139.8 516.7,139.9 519.8,133.0 522.9,161.0 526.1,140.4 529.2,146.8 532.4,143.3 535.5,143.0 538.6,145.7 541.8,129.6 544.9,152.7 548.1,143.8 551.2,151.3 554.4,135.6 557.5,138.3 560.6,137.1 563.8,139.0 566.9,138.4 570.1,139.7 573.2,135.7 576.3,148.9 579.5,137.8 582.6,140.9 585.8,149.3 588.9,143.3 592.1,140.1 595.2,113.7 598.3,149.4 601.5,137.5 604.6,159.7 607.8,150.8 610.9,121.5 614.0,168.0 617.2,129.8 620.3,147.0 623.5,144.4 626.6,133.2 629.8,160.9 632.9,153.9 636.0,134.3 639.2,142.1 642.3,157.8 645.5,129.3 648.6,144.4 651.7,140.3 654.9,141.3 658.0,146.8 661.2,124.0 664.3,131.4 667.5,136.0 670.6,97.9 673.7,170.7 676.9,117.1 680.0,166.9 683.2,141.4 686.3,107.7 689.4,138.6 692.6,128.8 695.7,145.6 698.9,151.2 702.0,136.8 705.2,143.7 708.3,126.5 711.4,120.8 714.6,158.3 717.7,127.5 720.9,157.6 724.0,105.6"/></svg>