<svg xmlns="http://www.w3.org/2000/svg" viewBox="0 0 700 230"><rect width="700" height="230" fill="white"/><text x="28" y="22" font-family="Arial" font-size="14" font-weight="700">Cycle 2 observed series with D1 phase fits</text><line x1="28" y1="192" x2="672" y2="192" stroke="#aab3bd"/><line x1="28" y1="28" x2="28" y2="192" stroke="#aab3bd"/><polyline points="28.0,183.7 31.9,181.9 35.7,180.7 39.6,177.7 43.4,180.7 47.3,178.3 51.1,177.7 55.0,180.7 58.9,180.7 62.7,179.5 66.6,167.0 70.4,171.1 74.3,168.7 78.1,176.5 82.0,179.5 85.8,169.9 89.7,181.9 93.6,175.3 97.4,177.7 101.3,178.3 105.1,174.1 109.0,182.5 112.8,186.6 116.7,182.5 120.6,182.5 124.4,189.0 128.3,182.5 132.1,183.7 136.0,182.5 139.8,181.9 143.7,183.7 147.5,175.3 151.4,171.1 155.3,168.7 159.1,149.7 163.0,164.0 166.8,152.0 170.7,164.0 174.5,162.8 178.4,147.9 182.3,147.9 186.1,142.5 190.0,144.9 193.8,149.1 197.7,146.7 201.5,147.9 205.4,141.3 209.2,133.0 213.1,141.3 217.0,134.7 220.8,142.5 224.7,126.4 228.5,111.5 232.4,128.8 236.2,127.6 240.1,118.1 244.0,125.2 247.8,107.9 251.7,118.6 255.5,110.3 259.4,107.9 263.2,125.2 267.1,114.5 270.9,102.5 274.8,111.5 278.7,103.7 282.5,98.4 286.4,107.9 290.2,85.3 294.1,101.4 297.9,72.1 301.8,61.4 305.7,73.3 309.5,69.1 313.4,60.2 317.2,65.6 321.1,66.8 324.9,74.5 328.8,68.0 332.6,95.4 336.5,85.3 340.4,41.1 344.2,62.6 348.1,76.3 351.9,53.6 355.8,79.9 359.6,74.5 363.5,111.5 367.4,70.9 371.2,93.0 375.1,84.1 378.9,82.9 382.8,57.8 386.6,61.4 390.5,52.5 394.3,48.9 398.2,62.6 402.1,43.5 405.9,28.0 409.8,65.6 413.6,69.1 417.5,50.1 421.3,53.6 425.2,50.1 429.1,61.4 432.9,39.3 436.8,59.0 440.6,61.4 444.5,79.9 448.3,59.0 452.2,82.9 456.0,66.8 459.9,72.1 463.8,77.5 467.6,75.7 471.5,57.2 475.3,79.9 479.2,60.2 479.2,60.2 483.0,107.9 486.9,172.3 490.8,175.3 494.6,186.6 498.5,189.0 502.3,192.0 506.2,181.9 510.0,186.6 513.9,181.9 517.7,182.5 521.6,186.6 525.5,184.8 529.3,182.5 533.2,178.3 537.0,186.6 540.9,187.8 544.7,175.3 548.6,176.5 552.5,177.7 556.3,182.5 560.2,183.7 564.0,190.2 567.9,190.2 571.7,189.0 575.6,189.0 579.4,186.6 583.3,189.0 587.2,184.8 591.0,186.6 594.9,184.8 598.7,187.8 602.6,192.0 606.4,186.6 610.3,184.8 614.2,183.7 618.0,182.5 621.9,178.3 625.7,186.6 629.6,184.8 633.4,186.6 637.3,186.6 641.1,186.6 645.0,187.8 648.9,181.9 652.7,186.6 656.6,186.6 660.4,190.2 664.3,186.6 668.1,184.8 672.0,182.5" fill="none" stroke="#102a43" stroke-width="3"/><polyline points="28.0,183.7 31.9,181.3 35.7,180.1 39.6,179.4 43.4,179.0 47.3,178.8 51.1,178.7 55.0,178.7 58.9,178.6 62.7,178.6 66.6,178.6 70.4,178.6 74.3,178.6 78.1,178.6 82.0,178.6 85.8,178.6 89.7,178.6 93.6,178.6 97.4,178.6 101.3,178.6 105.1,178.6 109.0,178.6 112.8,178.6 116.7,178.6 120.6,178.6 124.4,178.6 128.3,178.6 132.1,178.6 136.0,178.6 139.8,178.6 143.7,178.6 147.5,178.6 151.4,178.6 155.3,178.6 159.1,178.6 163.0,178.6 166.8,178.6 170.7,178.6 174.5,178.6 178.4,178.6 182.3,178.6 186.1,178.6 190.0,178.6 193.8,178.6 197.7,178.6 201.5,178.6 205.4,178.6 209.2,178.6 213.1,178.6 217.0,178.6 220.8,178.6 224.7,178.6 228.5,178.6 232.4,178.6 236.2,178.6 240.1,178.6 244.0,178.6 247.8,178.6 251.7,178.6 255.5,178.6 259.4,178.6 263.2,178.6 267.1,178.6 270.9,178.6 274.8,178.6 278.7,178.6 282.5,178.6 286.4,178.6 290.2,178.6 294.1,178.6 297.9,178.6 301.8,178.6 305.7,178.6 309.5,178.6 313.4,178.6 317.2,178.6 321.1,178.6 324.9,178.6 328.8,178.6 332.6,178.6 336.5,178.6 340.4,178.6 344.2,178.6 348.1,178.6 351.9,178.6 355.8,178.6 359.6,178.6 363.5,178.6 367.4,178.6 371.2,178.6 375.1,178.6 378.9,178.6 382.8,178.6 386.6,178.6 390.5,178.6 394.3,178.6 398.2,178.6 402.1,178.6 405.9,178.6 409.8,178.6 413.6,178.6 417.5,178.6 421.3,178.6 425.2,178.6 429.1,178.6 432.9,178.6 436.8,178.6 440.6,178.6 444.5,178.6 448.3,178.6 452.2,178.6 456.0,178.6 459.9,178.6 463.8,178.6 467.6,178.6 471.5,178.6 475.3,178.6 479.2,178.6 479.2,178.6 483.0,178.6 486.9,178.6 490.8,178.6 494.6,178.6 498.5,178.6 502.3,178.6 506.2,178.6 510.0,178.6 513.9,178.6 517.7,178.6 521.6,178.6 525.5,178.6 529.3,178.6 533.2,178.6 537.0,178.6 540.9,178.6 544.7,178.6 548.6,178.6 552.5,178.6 556.3,178.6 560.2,178.6 564.0,178.6 567.9,178.6 571.7,178.6 575.6,178.6 579.4,178.6 583.3,178.6 587.2,178.6 591.0,178.6 594.9,178.6 598.7,178.6 602.6,178.6 606.4,178.6 610.3,178.6 614.2,178.6 618.0,178.6 621.9,178.6 625.7,178.6 629.6,178.6 633.4,178.6 637.3,178.6 641.1,178.6 645.0,178.6 648.9,178.6 652.7,178.6 656.6,178.6 660.4,178.6 664.3,178.6 668.1,178.6 672.0,178.6" fill="none" stroke="#2d6cdf" stroke-width="2" opacity="0.78"/><polyline points="28.0,183.7 31.9,180.1 35.7,176.6 39.6,173.3 43.4,170.0 47.3,166.7 51.1,163.6 55.0,160.5 58.9,157.6 62.7,154.6 66.6,151.8 70.4,149.0 74.3,146.3 78.1,143.7 82.0,141.1 85.8,138.6 89.7,136.2 93.6,133.8 97.4,131.5 101.3,129.2 105.1,127.0 109.0,124.8 112.8,122.7 116.7,120.7 120.6,118.7 124.4,116.7 128.3,114.8 132.1,112.9 136.0,111.1 139.8,109.4 143.7,107.6 147.5,106.0 151.4,104.3 155.3,102.7 159.1,101.2 163.0,99.6 166.8,98.1 170.7,96.7 174.5,95.3 178.4,93.9 182.3,92.6 186.1,91.3 190.0,90.0 193.8,88.7 197.7,87.5 201.5,86.3 205.4,85.2 209.2,84.0 213.1,82.9 217.0,81.9 220.8,80.8 224.7,79.8 228.5,78.8 232.4,77.8 236.2,76.9 240.1,75.9 244.0,75.0 247.8,74.2 251.7,73.3 255.5,72.5 259.4,71.6 263.2,70.8 267.1,70.1 270.9,69.3 274.8,68.6 278.7,67.9 282.5,67.1 286.4,66.5 290.2,65.8 294.1,65.1 297.9,64.5 301.8,63.9 305.7,63.3 309.5,62.7 313.4,62.1 317.2,61.5 321.1,61.0 324.9,60.5 328.8,59.9 332.6,59.4 336.5,58.9 340.4,58.5 344.2,58.0 348.1,57.5 351.9,57.1 355.8,56.6 359.6,56.2 363.5,55.8 367.4,55.4 371.2,55.0 375.1,54.6 378.9,54.2 382.8,53.9 386.6,53.5 390.5,53.1 394.3,52.8 398.2,52.5 402.1,52.1 405.9,51.8 409.8,51.5 413.6,51.2 417.5,50.9 421.3,50.6 425.2,50.4 429.1,50.1 432.9,49.8 436.8,49.6 440.6,49.3 444.5,49.1 448.3,48.8 452.2,48.6 456.0,48.3 459.9,48.1 463.8,47.9 467.6,47.7 471.5,47.5 475.3,47.3 479.2,47.1 479.2,47.1 483.0,46.9 486.9,46.7 490.8,46.5 494.6,46.3 498.5,46.2 502.3,46.0 506.2,45.8 510.0,45.7 513.9,45.5 517.7,45.4 521.6,45.2 525.5,45.1 529.3,44.9 533.2,44.8 537.0,44.6 540.9,44.5 544.7,44.4 548.6,44.3 552.5,44.1 556.3,44.0 560.2,43.9 564.0,43.8 567.9,43.7 571.7,43.6 575.6,43.5 579.4,43.4 583.3,43.3 587.2,43.2 591.0,43.1 594.9,43.0 598.7,42.9 602.6,42.8 606.4,42.7 610.3,42.6 614.2,42.5 618.0,42.5 621.9,42.4 625.7,42.3 629.6,42.2 633.4,42.1 637.3,42.1 641.1,42.0 645.0,41.9 648.9,41.9 652.7,41.8 656.6,41.7 660.4,41.7 664.3,41.6 668.1,41.6 672.0,41.5" fill="none" stroke="#5f9f58" stroke-width="2" opacity="0.78"/><polyline points="28.0,183.7 31.9,188.3 35.7,190.7 39.6,191.9 43.4,192.5 47.3,192.8 51.1,193.0 55.0,193.1 58.9,193.1 62.7,193.2 66.6,193.2 70.4,193.2 74.3,193.2 78.1,193.2 82.0,193.2 85.8,193.2 89.7,193.2 93.6,193.2 97.4,193.2 101.3,193.2 105.1,193.2 109.0,193.2 112.8,193.2 116.7,193.2 120.6,193.2 124.4,193.2 128.3,193.2 132.1,193.2 136.0,193.2 139.8,193.2 143.7,193.2 147.5,193.2 151.4,193.2 155.3,193.2 159.1,193.2 163.0,193.2 166.8,193.2 170.7,193.2 174.5,193.2 178.4,193.2 182.3,193.2 186.1,193.2 190.0,193.2 193.8,193.2 197.7,193.2 201.5,193.2 205.4,193.2 209.2,193.2 213.1,193.2 217.0,193.2 220.8,193.2 224.7,193.2 228.5,193.2 232.4,193.2 236.2,193.2 240.1,193.2 244.0,193.2 247.8,193.2 251.7,193.2 255.5,193.2 259.4,193.2 263.2,193.2 267.1,193.2 270.9,193.2 274.8,193.2 278.7,193.2 282.5,193.2 286.4,193.2 290.2,193.2 294.1,193.2 297.9,193.2 301.8,193.2 305.7,193.2 309.5,193.2 313.4,193.2 317.2,193.2 321.1,193.2 324.9,193.2 328.8,193.2 332.6,193.2 336.5,193.2 340.4,193.2 344.2,193.2 348.1,193.2 351.9,193.2 355.8,193.2 359.6,193.2 363.5,193.2 367.4,193.2 371.2,193.2 375.1,193.2 378.9,193.2 382.8,193.2 386.6,193.2 390.5,193.2 394.3,193.2 398.2,193.2 402.1,193.2 405.9,193.2 409.8,193.2 413.6,193.2 417.5,193.2 421.3,193.2 425.2,193.2 429.1,193.2 432.9,193.2 436.8,193.2 440.6,193.2 444.5,193.2 448.3,193.2 452.2,193.2 456.0,193.2 459.9,193.2 463.8,193.2 467.6,193.2 471.5,193.2 475.3,193.2 479.2,193.2 479.2,193.2 483.0,193.2 486.9,193.2 490.8,193.2 494.6,193.2 498.5,193.2 502.3,193.2 506.2,193.2 510.0,193.2 513.9,193.2 517.7,193.2 521.6,193.2 525.5,193.2 529.3,193.2 533.2,193.2 537.0,193.2 540.9,193.2 544.7,193.2 548.6,193.2 552.5,193.2 556.3,193.2 560.2,193.2 564.0,193.2 567.9,193.2 571.7,193.2 575.6,193.2 579.4,193.2 583.3,193.2 587.2,193.2 591.0,193.2 594.9,193.2 598.7,193.2 602.6,193.2 606.4,193.2 610.3,193.2 614.2,193.2 618.0,193.2 621.9,193.2 625.7,193.2 629.6,193.2 633.4,193.2 637.3,193.2 641.1,193.2 645.0,193.2 648.9,193.2 652.7,193.2 656.6,193.2 660.4,193.2 664.3,193.2 668.1,193.2 672.0,193.2" fill="none" stroke="#b7791f" stroke-width="2" opacity="0.78"/><polyline points="28.0,183.7 31.9,181.0 35.7,179.8 39.6,179.3 43.4,179.1 47.3,179.0 51.1,179.0 55.0,178.9 58.9,178.9 62.7,178.9 66.6,178.9 70.4,178.9 74.3,178.9 78.1,178.9 82.0,178.9 85.8,178.9 89.7,178.9 93.6,178.9 97.4,178.9 101.3,178.9 105.1,178.9 109.0,178.9 112.8,178.9 116.7,178.9 120.6,178.9 124.4,178.9 128.3,178.9 132.1,178.9 136.0,178.9 139.8,178.9 143.7,178.9 147.5,178.9 151.4,178.9 155.3,178.9 159.1,178.9 163.0,178.9 166.8,178.9 170.7,178.9 174.5,178.9 178.4,178.9 182.3,178.9 186.1,178.9 190.0,178.9 193.8,178.9 197.7,178.9 201.5,178.9 205.4,178.9 209.2,178.9 213.1,178.9 217.0,178.9 220.8,178.9 224.7,178.9 228.5,178.9 232.4,178.9 236.2,178.9 240.1,178.9 244.0,178.9 247.8,178.9 251.7,178.9 255.5,178.9 259.4,178.9 263.2,178.9 267.1,178.9 270.9,178.9 274.8,178.9 278.7,178.9 282.5,178.9 286.4,178.9 290.2,178.9 294.1,178.9 297.9,178.9 301.8,178.9 305.7,178.9 309.5,178.9 313.4,178.9 317.2,178.9 321.1,178.9 324.9,178.9 328.8,178.9 332.6,178.9 336.5,178.9 340.4,178.9 344.2,178.9 348.1,178.9 351.9,178.9 355.8,178.9 359.6,178.9 363.5,178.9 367.4,178.9 371.2,178.9 375.1,178.9 378.9,178.9 382.8,178.9 386.6,178.9 390.5,178.9 394.3,178.9 398.2,178.9 402.1,178.9 405.9,178.9 409.8,178.9 413.6,178.9 417.5,178.9 421.3,178.9 425.2,178.9 429.1,178.9 432.9,178.9 436.8,178.9 440.6,178.9 444.5,178.9 448.3,178.9 452.2,178.9 456.0,178.9 459.9,178.9 463.8,178.9 467.6,178.9 471.5,178.9 475.3,178.9 479.2,178.9 479.2,178.9 483.0,178.9 486.9,178.9 490.8,178.9 494.6,178.9 498.5,178.9 502.3,178.9 506.2,178.9 510.0,178.9 513.9,178.9 517.7,178.9 521.6,178.9 525.5,178.9 529.3,178.9 533.2,178.9 537.0,178.9 540.9,178.9 544.7,178.9 548.6,178.9 552.5,178.9 556.3,178.9 560.2,178.9 564.0,178.9 567.9,178.9 571.7,178.9 575.6,178.9 579.4,178.9 583.3,178.9 587.2,178.9 591.0,178.9 594.9,178.9 598.7,178.9 602.6,178.9 606.4,178.9 610.3,178.9 614.2,178.9 618.0,178.9 621.9,178.9 625.7,178.9 629.6,178.9 633.4,178.9 637.3,178.9 641.1,178.9 645.0,178.9 648.9,178.9 652.7,178.9 656.6,178.9 660.4,178.9 664.3,178.9 668.1,178.9 672.0,178.9" fill="none" stroke="#7c3aed" stroke-width="2" opacity="0.78"/><polyline points="28.0,183.7 31.9,184.5 35.7,184.9 39.6,185.1 43.4,185.2 47.3,185.2 51.1,185.2 55.0,185.2 58.9,185.2 62.7,185.2 66.6,185.2 70.4,185.2 74.3,185.2 78.1,185.2 82.0,185.2 85.8,185.2 89.7,185.2 93.6,185.2 97.4,185.2 101.3,185.2 105.1,185.2 109.0,185.2 112.8,185.2 116.7,185.2 120.6,185.2 124.4,185.2 128.3,185.2 132.1,185.2 136.0,185.2 139.8,185.2 143.7,185.2 147.5,185.2 151.4,185.2 155.3,185.2 159.1,185.2 163.0,185.2 166.8,185.2 170.7,185.2 174.5,185.2 178.4,185.2 182.3,185.2 186.1,185.2 190.0,185.2 193.8,185.2 197.7,185.2 201.5,185.2 205.4,185.2 209.2,185.2 213.1,185.2 217.0,185.2 220.8,185.2 224.7,185.2 228.5,185.2 232.4,185.2 236.2,185.2 240.1,185.2 244.0,185.2 247.8,185.2 251.7,185.2 255.5,185.2 259.4,185.2 263.2,185.2 267.1,185.2 270.9,185.2 274.8,185.2 278.7,185.2 282.5,185.2 286.4,185.2 290.2,185.2 294.1,185.2 297.9,185.2 301.8,185.2 305.7,185.2 309.5,185.2 313.4,185.2 317.2,185.2 321.1,185.2 324.9,185.2 328.8,185.2 332.6,185.2 336.5,185.2 340.4,185.2 344.2,185.2 348.1,185.2 351.9,185.2 355.8,185.2 359.6,185.2 363.5,185.2 367.4,185.2 371.2,185.2 375.1,185.2 378.9,185.2 382.8,185.2 386.6,185.2 390.5,185.2 394.3,185.2 398.2,185.2 402.1,185.2 405.9,185.2 409.8,185.2 413.6,185.2 417.5,185.2 421.3,185.2 425.2,185.2 429.1,185.2 432.9,185.2 436.8,185.2 440.6,185.2 444.5,185.2 448.3,185.2 452.2,185.2 456.0,185.2 459.9,185.2 463.8,185.2 467.6,185.2 471.5,185.2 475.3,185.2 479.2,185.2 479.2,185.2 483.0,185.2 486.9,185.2 490.8,185.2 494.6,185.2 498.5,185.2 502.3,185.2 506.2,185.2 510.0,185.2 513.9,185.2 517.7,185.2 521.6,185.2 525.5,185.2 529.3,185.2 533.2,185.2 537.0,185.2 540.9,185.2 544.7,185.2 548.6,185.2 552.5,185.2 556.3,185.2 560.2,185.2 564.0,185.2 567.9,185.2 571.7,185.2 575.6,185.2 579.4,185.2 583.3,185.2 587.2,185.2 591.0,185.2 594.9,185.2 598.7,185.2 602.6,185.2 606.4,185.2 610.3,185.2 614.2,185.2 618.0,185.2 621.9,185.2 625.7,185.2 629.6,185.2 633.4,185.2 637.3,185.2 641.1,185.2 645.0,185.2 648.9,185.2 652.7,185.2 656.6,185.2 660.4,185.2 664.3,185.2 668.1,185.2 672.0,185.2" fill="none" stroke="#c2410c" stroke-width="2" opacity="0.78"/><polyline points="28.0,183.7 31.9,184.4 35.7,184.7 39.6,184.9 43.4,185.0 47.3,185.0 51.1,185.0 55.0,185.0 58.9,185.0 62.7,185.0 66.6,185.0 70.4,185.0 74.3,185.0 78.1,185.0 82.0,185.0 85.8,185.0 89.7,185.0 93.6,185.0 97.4,185.0 101.3,185.0 105.1,185.0 109.0,185.0 112.8,185.0 116.7,185.0 120.6,185.0 124.4,185.0 128.3,185.0 132.1,185.0 136.0,185.0 139.8,185.0 143.7,185.0 147.5,185.0 151.4,185.0 155.3,185.0 159.1,185.0 163.0,185.0 166.8,185.0 170.7,185.0 174.5,185.0 178.4,185.0 182.3,185.0 186.1,185.0 190.0,185.0 193.8,185.0 197.7,185.0 201.5,185.0 205.4,185.0 209.2,185.0 213.1,185.0 217.0,185.0 220.8,185.0 224.7,185.0 228.5,185.0 232.4,185.0 236.2,185.0 240.1,185.0 244.0,185.0 247.8,185.0 251.7,185.0 255.5,185.0 259.4,185.0 263.2,185.0 267.1,185.0 270.9,185.0 274.8,185.0 278.7,185.0 282.5,185.0 286.4,185.0 290.2,185.0 294.1,185.0 297.9,185.0 301.8,185.0 305.7,185.0 309.5,185.0 313.4,185.0 317.2,185.0 321.1,185.0 324.9,185.0 328.8,185.0 332.6,185.0 336.5,185.0 340.4,185.0 344.2,185.0 348.1,185.0 351.9,185.0 355.8,185.0 359.6,185.0 363.5,185.0 367.4,185.0 371.2,185.0 375.1,185.0 378.9,185.0 382.8,185.0 386.6,185.0 390.5,185.0 394.3,185.0 398.2,185.0 402.1,185.0 405.9,185.0 409.8,185.0 413.6,185.0 417.5,185.0 421.3,185.0 425.2,185.0 429.1,185.0 432.9,185.0 436.8,185.0 440.6,185.0 444.5,185.0 448.3,185.0 452.2,185.0 456.0,185.0 459.9,185.0 463.8,185.0 467.6,185.0 471.5,185.0 475.3,185.0 479.2,185.0 479.2,185.0 483.0,185.0 486.9,185.0 490.8,185.0 494.6,185.0 498.5,185.0 502.3,185.0 506.2,185.0 510.0,185.0 513.9,185.0 517.7,185.0 521.6,185.0 525.5,185.0 529.3,185.0 533.2,185.0 537.0,185.0 540.9,185.0 544.7,185.0 548.6,185.0 552.5,185.0 556.3,185.0 560.2,185.0 564.0,185.0 567.9,185.0 571.7,185.0 575.6,185.0 579.4,185.0 583.3,185.0 587.2,185.0 591.0,185.0 594.9,185.0 598.7,185.0 602.6,185.0 606.4,185.0 610.3,185.0 614.2,185.0 618.0,185.0 621.9,185.0 625.7,185.0 629.6,185.0 633.4,185.0 637.3,185.0 641.1,185.0 645.0,185.0 648.9,185.0 652.7,185.0 656.6,185.0 660.4,185.0 664.3,185.0 668.1,185.0 672.0,185.0" fill="none" stroke="#2d6cdf" stroke-width="2" opacity="0.78"/></svg>