<svg xmlns="http://www.w3.org/2000/svg" viewBox="0 0 700 230"><rect width="700" height="230" fill="white"/><text x="28" y="22" font-family="Arial" font-size="14" font-weight="700">Cycle 1 observed series with D1 phase fits</text><line x1="28" y1="192" x2="672" y2="192" stroke="#aab3bd"/><line x1="28" y1="28" x2="28" y2="192" stroke="#aab3bd"/><polyline points="28.0,185.6 31.4,185.6 34.7,181.0 38.1,185.6 41.5,186.8 44.9,188.0 48.2,183.9 51.6,186.8 55.0,179.9 58.3,181.6 61.7,182.8 65.1,181.6 68.5,175.8 71.8,183.9 75.2,185.6 78.6,185.6 81.9,188.0 85.3,190.8 88.7,186.8 92.1,177.6 95.4,186.8 98.8,192.0 102.2,185.6 105.5,189.1 108.9,188.0 112.3,183.9 115.7,183.9 119.0,185.6 122.4,181.6 125.8,182.8 129.2,183.9 132.5,185.6 135.9,183.9 139.3,164.9 142.6,149.3 146.0,155.0 149.4,140.0 152.8,148.1 156.1,131.4 159.5,149.3 162.9,141.8 166.2,140.6 169.6,128.5 173.0,134.8 176.4,123.3 179.7,118.1 183.1,112.9 186.5,126.2 189.8,129.6 193.2,108.8 196.6,89.8 200.0,107.7 203.3,100.2 206.7,81.7 210.1,86.3 213.4,96.1 216.8,88.6 220.2,85.2 223.6,82.3 226.9,93.8 230.3,99.0 233.7,103.1 237.0,83.4 240.4,97.3 243.8,73.6 247.2,86.3 250.5,99.0 253.9,93.8 257.3,74.8 260.6,111.7 264.0,100.2 267.4,91.5 270.8,97.9 274.1,78.8 277.5,89.8 280.9,55.7 284.3,85.2 287.6,75.9 291.0,63.2 294.4,66.1 297.7,63.2 301.1,63.2 304.5,77.1 307.9,70.7 311.2,72.5 314.6,68.4 318.0,62.1 321.3,72.5 324.7,74.8 328.1,82.3 331.5,72.5 334.8,62.1 338.2,78.8 341.6,73.6 344.9,64.4 348.3,60.9 351.7,50.5 355.1,50.5 358.4,36.7 361.8,28.0 365.2,54.6 368.5,58.0 371.9,47.1 375.3,37.2 378.7,41.9 382.0,54.6 385.4,35.5 388.8,67.3 392.1,59.2 395.5,49.4 398.9,58.0 402.3,34.4 405.6,62.1 409.0,73.6 412.4,60.9 415.7,44.7 419.1,64.4 422.5,64.4 425.9,62.1 429.2,60.3 432.6,67.3 436.0,66.1 439.4,66.1 442.7,54.6 446.1,62.1 449.5,70.7 452.8,47.1 456.2,69.6 459.6,50.5 463.0,41.9 466.3,70.7 469.7,60.9 473.1,45.9 476.4,43.0 479.8,47.1 483.2,72.5 486.6,86.3 489.9,95.0 493.3,78.2 496.7,86.3 500.0,69.6 503.4,54.6 506.8,60.3 506.8,60.3 510.2,165.4 513.5,179.9 516.9,172.9 520.3,179.9 523.6,181.6 527.0,177.6 530.4,183.9 533.8,183.9 537.1,182.8 540.5,181.0 543.9,183.9 547.2,175.8 550.6,175.8 554.0,174.7 557.4,182.8 560.7,181.0 564.1,181.0 567.5,181.6 570.8,181.0 574.2,185.6 577.6,179.9 581.0,186.8 584.3,188.0 587.7,185.6 591.1,183.9 594.5,189.1 597.8,186.8 601.2,186.8 604.6,185.6 607.9,190.8 611.3,190.8 614.7,190.8 618.1,185.6 621.4,188.0 624.8,185.6 628.2,185.6 631.5,182.8 634.9,181.0 638.3,186.8 641.7,185.6 645.0,181.0 648.4,186.8 651.8,182.8 655.1,186.8 658.5,189.1 661.9,186.8 665.3,185.6 668.6,185.6 672.0,186.8" fill="none" stroke="#102a43" stroke-width="3"/><polyline points="28.0,185.6 31.4,184.8 34.7,184.7 38.1,184.7 41.5,184.7 44.9,184.7 48.2,184.7 51.6,184.7 55.0,184.7 58.3,184.7 61.7,184.7 65.1,184.7 68.5,184.7 71.8,184.7 75.2,184.7 78.6,184.7 81.9,184.7 85.3,184.7 88.7,184.7 92.1,184.7 95.4,184.7 98.8,184.7 102.2,184.7 105.5,184.7 108.9,184.7 112.3,184.7 115.7,184.7 119.0,184.7 122.4,184.7 125.8,184.7 129.2,184.7 132.5,184.7 135.9,184.7 139.3,184.7 142.6,184.7 146.0,184.7 149.4,184.7 152.8,184.7 156.1,184.7 159.5,184.7 162.9,184.7 166.2,184.7 169.6,184.7 173.0,184.7 176.4,184.7 179.7,184.7 183.1,184.7 186.5,184.7 189.8,184.7 193.2,184.7 196.6,184.7 200.0,184.7 203.3,184.7 206.7,184.7 210.1,184.7 213.4,184.7 216.8,184.7 220.2,184.7 223.6,184.7 226.9,184.7 230.3,184.7 233.7,184.7 237.0,184.7 240.4,184.7 243.8,184.7 247.2,184.7 250.5,184.7 253.9,184.7 257.3,184.7 260.6,184.7 264.0,184.7 267.4,184.7 270.8,184.7 274.1,184.7 277.5,184.7 280.9,184.7 284.3,184.7 287.6,184.7 291.0,184.7 294.4,184.7 297.7,184.7 301.1,184.7 304.5,184.7 307.9,184.7 311.2,184.7 314.6,184.7 318.0,184.7 321.3,184.7 324.7,184.7 328.1,184.7 331.5,184.7 334.8,184.7 338.2,184.7 341.6,184.7 344.9,184.7 348.3,184.7 351.7,184.7 355.1,184.7 358.4,184.7 361.8,184.7 365.2,184.7 368.5,184.7 371.9,184.7 375.3,184.7 378.7,184.7 382.0,184.7 385.4,184.7 388.8,184.7 392.1,184.7 395.5,184.7 398.9,184.7 402.3,184.7 405.6,184.7 409.0,184.7 412.4,184.7 415.7,184.7 419.1,184.7 422.5,184.7 425.9,184.7 429.2,184.7 432.6,184.7 436.0,184.7 439.4,184.7 442.7,184.7 446.1,184.7 449.5,184.7 452.8,184.7 456.2,184.7 459.6,184.7 463.0,184.7 466.3,184.7 469.7,184.7 473.1,184.7 476.4,184.7 479.8,184.7 483.2,184.7 486.6,184.7 489.9,184.7 493.3,184.7 496.7,184.7 500.0,184.7 503.4,184.7 506.8,184.7 506.8,184.7 510.2,184.7 513.5,184.7 516.9,184.7 520.3,184.7 523.6,184.7 527.0,184.7 530.4,184.7 533.8,184.7 537.1,184.7 540.5,184.7 543.9,184.7 547.2,184.7 550.6,184.7 554.0,184.7 557.4,184.7 560.7,184.7 564.1,184.7 567.5,184.7 570.8,184.7 574.2,184.7 577.6,184.7 581.0,184.7 584.3,184.7 587.7,184.7 591.1,184.7 594.5,184.7 597.8,184.7 601.2,184.7 604.6,184.7 607.9,184.7 611.3,184.7 614.7,184.7 618.1,184.7 621.4,184.7 624.8,184.7 628.2,184.7 631.5,184.7 634.9,184.7 638.3,184.7 641.7,184.7 645.0,184.7 648.4,184.7 651.8,184.7 655.1,184.7 658.5,184.7 661.9,184.7 665.3,184.7 668.6,184.7 672.0,184.7" fill="none" stroke="#2d6cdf" stroke-width="2" opacity="0.78"/><polyline points="28.0,185.6 31.4,180.2 34.7,175.0 38.1,170.0 41.5,165.2 44.9,160.6 48.2,156.2 51.6,152.0 55.0,147.9 58.3,144.1 61.7,140.4 65.1,136.8 68.5,133.5 71.8,130.2 75.2,127.1 78.6,124.1 81.9,121.3 85.3,118.6 88.7,116.0 92.1,113.5 95.4,111.1 98.8,108.8 102.2,106.6 105.5,104.5 108.9,102.5 112.3,100.5 115.7,98.7 119.0,96.9 122.4,95.2 125.8,93.6 129.2,92.1 132.5,90.6 135.9,89.2 139.3,87.8 142.6,86.5 146.0,85.2 149.4,84.1 152.8,82.9 156.1,81.8 159.5,80.8 162.9,79.8 166.2,78.8 169.6,77.9 173.0,77.0 176.4,76.1 179.7,75.3 183.1,74.6 186.5,73.8 189.8,73.1 193.2,72.4 196.6,71.8 200.0,71.2 203.3,70.6 206.7,70.0 210.1,69.4 213.4,68.9 216.8,68.4 220.2,67.9 223.6,67.5 226.9,67.0 230.3,66.6 233.7,66.2 237.0,65.8 240.4,65.5 243.8,65.1 247.2,64.8 250.5,64.4 253.9,64.1 257.3,63.8 260.6,63.5 264.0,63.3 267.4,63.0 270.8,62.8 274.1,62.5 277.5,62.3 280.9,62.1 284.3,61.9 287.6,61.7 291.0,61.5 294.4,61.3 297.7,61.1 301.1,60.9 304.5,60.8 307.9,60.6 311.2,60.5 314.6,60.3 318.0,60.2 321.3,60.1 324.7,59.9 328.1,59.8 331.5,59.7 334.8,59.6 338.2,59.5 341.6,59.4 344.9,59.3 348.3,59.2 351.7,59.1 355.1,59.0 358.4,58.9 361.8,58.9 365.2,58.8 368.5,58.7 371.9,58.7 375.3,58.6 378.7,58.5 382.0,58.5 385.4,58.4 388.8,58.4 392.1,58.3 395.5,58.3 398.9,58.2 402.3,58.2 405.6,58.1 409.0,58.1 412.4,58.0 415.7,58.0 419.1,58.0 422.5,57.9 425.9,57.9 429.2,57.9 432.6,57.8 436.0,57.8 439.4,57.8 442.7,57.7 446.1,57.7 449.5,57.7 452.8,57.7 456.2,57.6 459.6,57.6 463.0,57.6 466.3,57.6 469.7,57.6 473.1,57.5 476.4,57.5 479.8,57.5 483.2,57.5 486.6,57.5 489.9,57.5 493.3,57.4 496.7,57.4 500.0,57.4 503.4,57.4 506.8,57.4 506.8,57.4 510.2,57.4 513.5,57.4 516.9,57.4 520.3,57.3 523.6,57.3 527.0,57.3 530.4,57.3 533.8,57.3 537.1,57.3 540.5,57.3 543.9,57.3 547.2,57.3 550.6,57.3 554.0,57.3 557.4,57.3 560.7,57.3 564.1,57.2 567.5,57.2 570.8,57.2 574.2,57.2 577.6,57.2 581.0,57.2 584.3,57.2 587.7,57.2 591.1,57.2 594.5,57.2 597.8,57.2 601.2,57.2 604.6,57.2 607.9,57.2 611.3,57.2 614.7,57.2 618.1,57.2 621.4,57.2 624.8,57.2 628.2,57.2 631.5,57.2 634.9,57.2 638.3,57.2 641.7,57.2 645.0,57.2 648.4,57.2 651.8,57.2 655.1,57.2 658.5,57.2 661.9,57.2 665.3,57.2 668.6,57.2 672.0,57.2" fill="none" stroke="#5f9f58" stroke-width="2" opacity="0.78"/><polyline points="28.0,185.6 31.4,177.4 34.7,176.7 38.1,176.6 41.5,176.6 44.9,176.6 48.2,176.6 51.6,176.6 55.0,176.6 58.3,176.6 61.7,176.6 65.1,176.6 68.5,176.6 71.8,176.6 75.2,176.6 78.6,176.6 81.9,176.6 85.3,176.6 88.7,176.6 92.1,176.6 95.4,176.6 98.8,176.6 102.2,176.6 105.5,176.6 108.9,176.6 112.3,176.6 115.7,176.6 119.0,176.6 122.4,176.6 125.8,176.6 129.2,176.6 132.5,176.6 135.9,176.6 139.3,176.6 142.6,176.6 146.0,176.6 149.4,176.6 152.8,176.6 156.1,176.6 159.5,176.6 162.9,176.6 166.2,176.6 169.6,176.6 173.0,176.6 176.4,176.6 179.7,176.6 183.1,176.6 186.5,176.6 189.8,176.6 193.2,176.6 196.6,176.6 200.0,176.6 203.3,176.6 206.7,176.6 210.1,176.6 213.4,176.6 216.8,176.6 220.2,176.6 223.6,176.6 226.9,176.6 230.3,176.6 233.7,176.6 237.0,176.6 240.4,176.6 243.8,176.6 247.2,176.6 250.5,176.6 253.9,176.6 257.3,176.6 260.6,176.6 264.0,176.6 267.4,176.6 270.8,176.6 274.1,176.6 277.5,176.6 280.9,176.6 284.3,176.6 287.6,176.6 291.0,176.6 294.4,176.6 297.7,176.6 301.1,176.6 304.5,176.6 307.9,176.6 311.2,176.6 314.6,176.6 318.0,176.6 321.3,176.6 324.7,176.6 328.1,176.6 331.5,176.6 334.8,176.6 338.2,176.6 341.6,176.6 344.9,176.6 348.3,176.6 351.7,176.6 355.1,176.6 358.4,176.6 361.8,176.6 365.2,176.6 368.5,176.6 371.9,176.6 375.3,176.6 378.7,176.6 382.0,176.6 385.4,176.6 388.8,176.6 392.1,176.6 395.5,176.6 398.9,176.6 402.3,176.6 405.6,176.6 409.0,176.6 412.4,176.6 415.7,176.6 419.1,176.6 422.5,176.6 425.9,176.6 429.2,176.6 432.6,176.6 436.0,176.6 439.4,176.6 442.7,176.6 446.1,176.6 449.5,176.6 452.8,176.6 456.2,176.6 459.6,176.6 463.0,176.6 466.3,176.6 469.7,176.6 473.1,176.6 476.4,176.6 479.8,176.6 483.2,176.6 486.6,176.6 489.9,176.6 493.3,176.6 496.7,176.6 500.0,176.6 503.4,176.6 506.8,176.6 506.8,176.6 510.2,176.6 513.5,176.6 516.9,176.6 520.3,176.6 523.6,176.6 527.0,176.6 530.4,176.6 533.8,176.6 537.1,176.6 540.5,176.6 543.9,176.6 547.2,176.6 550.6,176.6 554.0,176.6 557.4,176.6 560.7,176.6 564.1,176.6 567.5,176.6 570.8,176.6 574.2,176.6 577.6,176.6 581.0,176.6 584.3,176.6 587.7,176.6 591.1,176.6 594.5,176.6 597.8,176.6 601.2,176.6 604.6,176.6 607.9,176.6 611.3,176.6 614.7,176.6 618.1,176.6 621.4,176.6 624.8,176.6 628.2,176.6 631.5,176.6 634.9,176.6 638.3,176.6 641.7,176.6 645.0,176.6 648.4,176.6 651.8,176.6 655.1,176.6 658.5,176.6 661.9,176.6 665.3,176.6 668.6,176.6 672.0,176.6" fill="none" stroke="#b7791f" stroke-width="2" opacity="0.78"/><polyline points="28.0,185.6 31.4,184.9 34.7,184.8 38.1,184.7 41.5,184.7 44.9,184.7 48.2,184.7 51.6,184.7 55.0,184.7 58.3,184.7 61.7,184.7 65.1,184.7 68.5,184.7 71.8,184.7 75.2,184.7 78.6,184.7 81.9,184.7 85.3,184.7 88.7,184.7 92.1,184.7 95.4,184.7 98.8,184.7 102.2,184.7 105.5,184.7 108.9,184.7 112.3,184.7 115.7,184.7 119.0,184.7 122.4,184.7 125.8,184.7 129.2,184.7 132.5,184.7 135.9,184.7 139.3,184.7 142.6,184.7 146.0,184.7 149.4,184.7 152.8,184.7 156.1,184.7 159.5,184.7 162.9,184.7 166.2,184.7 169.6,184.7 173.0,184.7 176.4,184.7 179.7,184.7 183.1,184.7 186.5,184.7 189.8,184.7 193.2,184.7 196.6,184.7 200.0,184.7 203.3,184.7 206.7,184.7 210.1,184.7 213.4,184.7 216.8,184.7 220.2,184.7 223.6,184.7 226.9,184.7 230.3,184.7 233.7,184.7 237.0,184.7 240.4,184.7 243.8,184.7 247.2,184.7 250.5,184.7 253.9,184.7 257.3,184.7 260.6,184.7 264.0,184.7 267.4,184.7 270.8,184.7 274.1,184.7 277.5,184.7 280.9,184.7 284.3,184.7 287.6,184.7 291.0,184.7 294.4,184.7 297.7,184.7 301.1,184.7 304.5,184.7 307.9,184.7 311.2,184.7 314.6,184.7 318.0,184.7 321.3,184.7 324.7,184.7 328.1,184.7 331.5,184.7 334.8,184.7 338.2,184.7 341.6,184.7 344.9,184.7 348.3,184.7 351.7,184.7 355.1,184.7 358.4,184.7 361.8,184.7 365.2,184.7 368.5,184.7 371.9,184.7 375.3,184.7 378.7,184.7 382.0,184.7 385.4,184.7 388.8,184.7 392.1,184.7 395.5,184.7 398.9,184.7 402.3,184.7 405.6,184.7 409.0,184.7 412.4,184.7 415.7,184.7 419.1,184.7 422.5,184.7 425.9,184.7 429.2,184.7 432.6,184.7 436.0,184.7 439.4,184.7 442.7,184.7 446.1,184.7 449.5,184.7 452.8,184.7 456.2,184.7 459.6,184.7 463.0,184.7 466.3,184.7 469.7,184.7 473.1,184.7 476.4,184.7 479.8,184.7 483.2,184.7 486.6,184.7 489.9,184.7 493.3,184.7 496.7,184.7 500.0,184.7 503.4,184.7 506.8,184.7 506.8,184.7 510.2,184.7 513.5,184.7 516.9,184.7 520.3,184.7 523.6,184.7 527.0,184.7 530.4,184.7 533.8,184.7 537.1,184.7 540.5,184.7 543.9,184.7 547.2,184.7 550.6,184.7 554.0,184.7 557.4,184.7 560.7,184.7 564.1,184.7 567.5,184.7 570.8,184.7 574.2,184.7 577.6,184.7 581.0,184.7 584.3,184.7 587.7,184.7 591.1,184.7 594.5,184.7 597.8,184.7 601.2,184.7 604.6,184.7 607.9,184.7 611.3,184.7 614.7,184.7 618.1,184.7 621.4,184.7 624.8,184.7 628.2,184.7 631.5,184.7 634.9,184.7 638.3,184.7 641.7,184.7 645.0,184.7 648.4,184.7 651.8,184.7 655.1,184.7 658.5,184.7 661.9,184.7 665.3,184.7 668.6,184.7 672.0,184.7" fill="none" stroke="#7c3aed" stroke-width="2" opacity="0.78"/><polyline points="28.0,185.6 31.4,184.4 34.7,184.2 38.1,184.2 41.5,184.2 44.9,184.2 48.2,184.2 51.6,184.2 55.0,184.2 58.3,184.2 61.7,184.2 65.1,184.2 68.5,184.2 71.8,184.2 75.2,184.2 78.6,184.2 81.9,184.2 85.3,184.2 88.7,184.2 92.1,184.2 95.4,184.2 98.8,184.2 102.2,184.2 105.5,184.2 108.9,184.2 112.3,184.2 115.7,184.2 119.0,184.2 122.4,184.2 125.8,184.2 129.2,184.2 132.5,184.2 135.9,184.2 139.3,184.2 142.6,184.2 146.0,184.2 149.4,184.2 152.8,184.2 156.1,184.2 159.5,184.2 162.9,184.2 166.2,184.2 169.6,184.2 173.0,184.2 176.4,184.2 179.7,184.2 183.1,184.2 186.5,184.2 189.8,184.2 193.2,184.2 196.6,184.2 200.0,184.2 203.3,184.2 206.7,184.2 210.1,184.2 213.4,184.2 216.8,184.2 220.2,184.2 223.6,184.2 226.9,184.2 230.3,184.2 233.7,184.2 237.0,184.2 240.4,184.2 243.8,184.2 247.2,184.2 250.5,184.2 253.9,184.2 257.3,184.2 260.6,184.2 264.0,184.2 267.4,184.2 270.8,184.2 274.1,184.2 277.5,184.2 280.9,184.2 284.3,184.2 287.6,184.2 291.0,184.2 294.4,184.2 297.7,184.2 301.1,184.2 304.5,184.2 307.9,184.2 311.2,184.2 314.6,184.2 318.0,184.2 321.3,184.2 324.7,184.2 328.1,184.2 331.5,184.2 334.8,184.2 338.2,184.2 341.6,184.2 344.9,184.2 348.3,184.2 351.7,184.2 355.1,184.2 358.4,184.2 361.8,184.2 365.2,184.2 368.5,184.2 371.9,184.2 375.3,184.2 378.7,184.2 382.0,184.2 385.4,184.2 388.8,184.2 392.1,184.2 395.5,184.2 398.9,184.2 402.3,184.2 405.6,184.2 409.0,184.2 412.4,184.2 415.7,184.2 419.1,184.2 422.5,184.2 425.9,184.2 429.2,184.2 432.6,184.2 436.0,184.2 439.4,184.2 442.7,184.2 446.1,184.2 449.5,184.2 452.8,184.2 456.2,184.2 459.6,184.2 463.0,184.2 466.3,184.2 469.7,184.2 473.1,184.2 476.4,184.2 479.8,184.2 483.2,184.2 486.6,184.2 489.9,184.2 493.3,184.2 496.7,184.2 500.0,184.2 503.4,184.2 506.8,184.2 506.8,184.2 510.2,184.2 513.5,184.2 516.9,184.2 520.3,184.2 523.6,184.2 527.0,184.2 530.4,184.2 533.8,184.2 537.1,184.2 540.5,184.2 543.9,184.2 547.2,184.2 550.6,184.2 554.0,184.2 557.4,184.2 560.7,184.2 564.1,184.2 567.5,184.2 570.8,184.2 574.2,184.2 577.6,184.2 581.0,184.2 584.3,184.2 587.7,184.2 591.1,184.2 594.5,184.2 597.8,184.2 601.2,184.2 604.6,184.2 607.9,184.2 611.3,184.2 614.7,184.2 618.1,184.2 621.4,184.2 624.8,184.2 628.2,184.2 631.5,184.2 634.9,184.2 638.3,184.2 641.7,184.2 645.0,184.2 648.4,184.2 651.8,184.2 655.1,184.2 658.5,184.2 661.9,184.2 665.3,184.2 668.6,184.2 672.0,184.2" fill="none" stroke="#c2410c" stroke-width="2" opacity="0.78"/><polyline points="28.0,185.6 31.4,185.8 34.7,185.9 38.1,185.9 41.5,186.0 44.9,186.1 48.2,186.2 51.6,186.3 55.0,186.4 58.3,186.5 61.7,186.5 65.1,186.6 68.5,186.7 71.8,186.7 75.2,186.8 78.6,186.9 81.9,186.9 85.3,187.0 88.7,187.0 92.1,187.1 95.4,187.1 98.8,187.2 102.2,187.2 105.5,187.3 108.9,187.3 112.3,187.4 115.7,187.4 119.0,187.5 122.4,187.5 125.8,187.5 129.2,187.6 132.5,187.6 135.9,187.6 139.3,187.7 142.6,187.7 146.0,187.7 149.4,187.8 152.8,187.8 156.1,187.8 159.5,187.8 162.9,187.9 166.2,187.9 169.6,187.9 173.0,187.9 176.4,187.9 179.7,188.0 183.1,188.0 186.5,188.0 189.8,188.0 193.2,188.0 196.6,188.1 200.0,188.1 203.3,188.1 206.7,188.1 210.1,188.1 213.4,188.1 216.8,188.2 220.2,188.2 223.6,188.2 226.9,188.2 230.3,188.2 233.7,188.2 237.0,188.2 240.4,188.2 243.8,188.2 247.2,188.3 250.5,188.3 253.9,188.3 257.3,188.3 260.6,188.3 264.0,188.3 267.4,188.3 270.8,188.3 274.1,188.3 277.5,188.3 280.9,188.3 284.3,188.3 287.6,188.4 291.0,188.4 294.4,188.4 297.7,188.4 301.1,188.4 304.5,188.4 307.9,188.4 311.2,188.4 314.6,188.4 318.0,188.4 321.3,188.4 324.7,188.4 328.1,188.4 331.5,188.4 334.8,188.4 338.2,188.4 341.6,188.4 344.9,188.4 348.3,188.4 351.7,188.4 355.1,188.4 358.4,188.4 361.8,188.4 365.2,188.5 368.5,188.5 371.9,188.5 375.3,188.5 378.7,188.5 382.0,188.5 385.4,188.5 388.8,188.5 392.1,188.5 395.5,188.5 398.9,188.5 402.3,188.5 405.6,188.5 409.0,188.5 412.4,188.5 415.7,188.5 419.1,188.5 422.5,188.5 425.9,188.5 429.2,188.5 432.6,188.5 436.0,188.5 439.4,188.5 442.7,188.5 446.1,188.5 449.5,188.5 452.8,188.5 456.2,188.5 459.6,188.5 463.0,188.5 466.3,188.5 469.7,188.5 473.1,188.5 476.4,188.5 479.8,188.5 483.2,188.5 486.6,188.5 489.9,188.5 493.3,188.5 496.7,188.5 500.0,188.5 503.4,188.5 506.8,188.5 506.8,188.5 510.2,188.5 513.5,188.5 516.9,188.5 520.3,188.5 523.6,188.5 527.0,188.5 530.4,188.5 533.8,188.5 537.1,188.5 540.5,188.5 543.9,188.5 547.2,188.5 550.6,188.5 554.0,188.5 557.4,188.5 560.7,188.5 564.1,188.5 567.5,188.5 570.8,188.5 574.2,188.5 577.6,188.5 581.0,188.5 584.3,188.5 587.7,188.5 591.1,188.5 594.5,188.5 597.8,188.5 601.2,188.5 604.6,188.5 607.9,188.5 611.3,188.5 614.7,188.5 618.1,188.5 621.4,188.5 624.8,188.5 628.2,188.5 631.5,188.5 634.9,188.5 638.3,188.5 641.7,188.5 645.0,188.5 648.4,188.5 651.8,188.5 655.1,188.5 658.5,188.5 661.9,188.5 665.3,188.5 668.6,188.5 672.0,188.5" fill="none" stroke="#2d6cdf" stroke-width="2" opacity="0.78"/></svg>