<svg xmlns="http://www.w3.org/2000/svg" width="760" height="260"><rect width="100%" height="100%" fill="#fff"/><text x="24" y="24" font-size="16" font-family="Arial">Coverage and interval width by phase</text><rect x="32" y="52.8" width="18" height="167.2" fill="#2f6fdf"/><rect x="60" y="40.0" width="18" height="180.0" fill="#2f6fdf"/><rect x="88" y="40.0" width="18" height="180.0" fill="#2f6fdf"/><rect x="116" y="85.0" width="18" height="135.0" fill="#2f6fdf"/><rect x="144" y="42.2" width="18" height="177.8" fill="#2f6fdf"/><rect x="172" y="40.0" width="18" height="180.0" fill="#2f6fdf"/><rect x="200" y="40.0" width="18" height="180.0" fill="#2f6fdf"/><rect x="228" y="130.0" width="18" height="90.0" fill="#2f6fdf"/><rect x="256" y="42.2" width="18" height="177.8" fill="#2f6fdf"/><rect x="284" y="40.0" width="18" height="180.0" fill="#2f6fdf"/><rect x="312" y="44.0" width="18" height="176.0" fill="#2f6fdf"/><rect x="340" y="175.0" width="18" height="45.0" fill="#2f6fdf"/><rect x="368" y="69.7" width="18" height="150.3" fill="#2f6fdf"/><rect x="396" y="40.0" width="18" height="180.0" fill="#2f6fdf"/><rect x="424" y="40.0" width="18" height="180.0" fill="#2f6fdf"/><rect x="452" y="85.0" width="18" height="135.0" fill="#2f6fdf"/><rect x="480" y="48.5" width="18" height="171.5" fill="#2f6fdf"/><rect x="508" y="40.0" width="18" height="180.0" fill="#2f6fdf"/><rect x="536" y="40.0" width="18" height="180.0" fill="#2f6fdf"/><rect x="564" y="130.0" width="18" height="90.0" fill="#2f6fdf"/><rect x="592" y="44.3" width="18" height="175.7" fill="#2f6fdf"/><rect x="620" y="40.0" width="18" height="180.0" fill="#2f6fdf"/><rect x="648" y="44.0" width="18" height="176.0" fill="#2f6fdf"/><rect x="676" y="175.0" width="18" height="45.0" fill="#2f6fdf"/></svg>