<svg xmlns="http://www.w3.org/2000/svg" width="760" height="260"><rect width="100%" height="100%" fill="#fff"/><text x="24" y="24" font-size="16" font-family="Arial">F1 forecast with intervals</text><polyline fill="none" stroke="#1f77b4" stroke-width="2" points="32.0,215.9 35.9,214.5 39.8,210.9 43.7,214.5 47.6,211.6 51.4,210.9 55.3,214.5 59.2,214.5 63.1,213.0 67.0,198.1 70.9,203.1 74.8,200.2 78.7,209.5 82.5,213.0 86.4,201.6 90.3,215.9 94.2,208.0 98.1,210.9 102.0,211.6 105.9,206.6 109.8,216.6 113.7,221.6 117.5,216.6 121.4,216.6 125.3,224.4 129.2,216.6 133.1,218.0 137.0,216.6 140.9,215.9 144.8,218.0 148.6,208.0 152.5,203.1 156.4,200.2 160.3,177.4 164.2,194.5 168.1,180.2 172.0,194.5 175.9,193.1 179.8,175.3 183.6,175.3 187.5,168.8 191.4,171.7 195.3,176.7 199.2,173.8 203.1,175.3 207.0,167.4 210.9,157.4 214.7,167.4 218.6,159.6 222.5,168.8 226.4,149.6 230.3,131.8 234.2,152.5 238.1,151.0 242.0,139.6 245.9,148.2 249.7,127.5 253.6,140.3 257.5,130.4 261.4,127.5 265.3,148.2 269.2,135.3 273.1,121.1 277.0,131.8 280.8,122.5 284.7,116.1 288.6,127.5 292.5,100.4 296.4,119.7 300.3,84.7 304.2,71.9 308.1,86.2 312.0,81.2 315.8,70.5 319.7,76.9 323.6,78.3 327.5,87.6 331.4,79.8 335.3,112.5 339.2,100.4 343.1,47.7 346.9,73.3 350.8,89.7 354.7,62.6 358.6,94.0 362.5,87.6 366.4,131.8 370.3,83.3 374.2,109.7 378.1,99.0 381.9,97.6 385.8,67.6 389.7,71.9 393.6,61.2 397.5,56.9 401.4,73.3 405.3,50.5 409.2,32.0 413.1,76.9 416.9,81.2 420.8,58.4 424.7,62.6 428.6,58.4 432.5,71.9 436.4,45.5 440.3,69.1 444.2,71.9 448.0,94.0 451.9,69.1 455.8,97.6 459.7,78.3 463.6,84.7 467.5,91.2 471.4,89.0 475.3,66.9 479.2,94.0 483.0,70.5 486.9,127.5 490.8,204.5 494.7,208.0 498.6,221.6 502.5,224.4 506.4,228.0 510.3,215.9 514.1,221.6 518.0,215.9 521.9,216.6 525.8,221.6 529.7,219.4 533.6,216.6 537.5,211.6 541.4,221.6 545.3,223.0 549.1,208.0 553.0,209.5 556.9,210.9 560.8,216.6 564.7,218.0 568.6,225.9 572.5,225.9 576.4,224.4 580.2,224.4 584.1,221.6 588.0,224.4 591.9,219.4 595.8,221.6 599.7,219.4 603.6,223.0 607.5,228.0 611.4,221.6 615.2,219.4 619.1,218.0 623.0,216.6 626.9,211.6 630.8,221.6 634.7,219.4 638.6,221.6 642.5,221.6 646.3,221.6 650.2,223.0 654.1,215.9 658.0,221.6 661.9,221.6 665.8,225.9 669.7,221.6 673.6,219.4 677.5,216.6 681.3,221.6 685.2,215.9 689.1,221.6 693.0,223.0 696.9,224.4 700.8,219.4 704.7,223.0 708.6,214.5 712.4,216.6 716.3,218.0 720.2,216.6 724.1,209.5 728.0,219.4"/><polyline fill="none" stroke="#2ca02c" stroke-width="2" points="32.0,216.2 35.9,214.1 39.8,212.6 43.7,209.5 47.6,211.5 51.4,209.8 55.3,208.9 59.2,211.4 63.1,211.9 67.0,211.0 70.9,199.5 74.8,200.6 78.7,198.7 82.5,205.2 86.4,209.4 90.3,201.8 94.2,210.8 98.1,207.0 102.0,208.2 105.9,209.1 109.8,205.5 113.7,212.2 117.5,217.5 121.4,215.0 125.3,214.4 129.2,220.1 133.1,215.6 137.0,215.6 140.9,214.5 144.8,213.7 148.6,215.2 152.5,208.0 156.4,202.6 160.3,199.2 164.2,181.2 168.1,189.9 172.0,181.2 175.9,189.9 179.8,190.9 183.6,177.7 187.5,174.7 191.4,169.1 195.3,170.0 199.2,173.9 203.1,172.7 207.0,173.5 210.9,167.8 214.7,159.0 218.6,164.4 222.5,159.8 226.4,165.7 230.3,152.6 234.2,136.2 238.1,147.9 242.0,149.5 245.9,141.3 249.7,145.9 253.6,131.4 257.5,137.7 261.4,131.6 265.3,128.1 269.2,142.8 273.1,136.6 277.0,124.4 280.8,129.6 284.7,123.9 288.6,117.7 292.5,124.9 296.4,106.2 300.3,116.3 304.2,92.4 308.1,77.2 312.0,84.4 315.8,82.3 319.7,73.8 323.6,76.6 327.5,78.4 331.4,85.7 335.3,81.5 339.2,105.2 343.1,101.6 346.9,61.1 350.8,71.0 354.7,85.6 358.6,68.7 362.5,88.3 366.4,88.0 370.3,121.2 374.2,92.5 378.1,105.6 381.9,100.6 385.8,98.4 389.7,75.4 393.6,73.3 397.5,64.7 401.4,59.5 405.3,70.7 409.2,56.1 413.1,38.8 416.9,68.5 420.8,78.6 424.7,63.8 428.6,63.6 432.5,60.3 436.4,69.8 440.3,52.1 444.2,65.7 448.0,71.0 451.9,88.8 455.8,74.2 459.7,92.3 463.6,82.0 467.5,84.4 471.4,89.8 475.3,89.5 479.2,72.8 483.0,89.3 486.9,75.4 490.8,210.2 494.7,210.2 498.6,210.2 502.5,210.2 506.4,218.5 510.3,223.7 514.1,215.9 518.0,218.3 521.9,214.6 525.8,214.3 529.7,218.0 533.6,217.2 537.5,214.9 541.4,210.6 545.3,217.1 549.1,219.7 553.0,209.0 556.9,207.6 560.8,208.4 564.7,212.8 568.6,214.9 572.5,221.3 576.4,222.8 580.2,222.1 584.1,221.9 588.0,219.7 591.9,221.4 595.8,218.0 599.7,218.8 603.6,217.4 607.5,219.8 611.4,224.1 615.2,220.2 619.1,217.7 623.0,216.1 626.9,214.6 630.8,210.5 634.7,217.1 638.6,217.0 642.5,218.6 646.3,219.0 650.2,219.0 654.1,220.1 658.0,215.0 661.9,218.1 665.8,218.9 669.7,222.2 673.6,219.8 677.5,217.6 681.3,219.3 685.2,218.3 689.1,214.6 693.0,216.6 696.9,218.2 700.8,219.7 704.7,217.3 708.6,218.5 712.4,213.8 716.3,213.3 720.2,214.0 724.1,213.4 728.0,208.9"/></svg>