<svg xmlns="http://www.w3.org/2000/svg" width="760" height="260"><rect width="100%" height="100%" fill="#fff"/><text x="24" y="24" font-size="16" font-family="Arial">Rapid-removal F1 vs F2</text><polyline fill="none" stroke="#1f77b4" stroke-width="2" points="32.0,106.4 85.5,205.9 139.1,210.5 192.6,228.0 246.2,106.4 299.7,205.9 353.2,210.5 406.8,228.0 460.3,195.8 513.8,218.8 567.4,207.7 620.9,195.8 674.5,218.8 728.0,207.7"/><polyline fill="none" stroke="#2ca02c" stroke-width="2" points="32.0,39.1 85.5,213.3 139.1,213.3 192.6,213.3 246.2,213.3 299.7,213.3 353.2,213.3 406.8,213.3 460.3,32.0 513.8,209.1 567.4,220.2 620.9,195.1 674.5,209.1 728.0,220.2"/></svg>