<svg xmlns="http://www.w3.org/2000/svg" viewBox="0 0 700 250"><rect width="700" height="250" fill="white"/><text x="28" y="20" font-family="Arial" font-size="14" font-weight="700">Experiment A observed vs predicted</text><rect x="28.0" y="42" width="123.4" height="164" fill="#e8eef7" opacity="0.72"/><rect x="155.3" y="42" width="323.9" height="164" fill="#fff0c9" opacity="0.72"/><rect x="479.2" y="42" width="15.4" height="164" fill="#d9f3ee" opacity="0.72"/><rect x="498.5" y="42" width="173.5" height="164" fill="#eef8e8" opacity="0.72"/><rect x="479.2" y="38" width="15.4" height="172" fill="none" stroke="#0f766e" stroke-width="2" stroke-dasharray="5 4"/><line x1="28" y1="206" x2="672" y2="206" stroke="#aab3bd"/><line x1="28" y1="42" x2="28" y2="206" stroke="#aab3bd"/><polyline points="28.0,168.3 31.9,166.7 35.7,165.6 39.6,162.9 43.4,165.6 47.3,163.5 51.1,162.9 55.0,165.6 58.9,165.6 62.7,164.6 66.6,153.3 70.4,157.0 74.3,154.9 78.1,161.9 82.0,164.6 85.8,156.0 89.7,166.7 93.6,160.8 97.4,162.9 101.3,163.5 105.1,159.7 109.0,167.3 112.8,171.0 116.7,167.3 120.6,167.3 124.4,173.2 128.3,167.3 132.1,168.3 136.0,167.3 139.8,166.7 143.7,168.3 147.5,160.8 151.4,157.0 155.3,154.9 159.1,137.7 163.0,150.6 166.8,139.8 170.7,150.6 174.5,149.5 178.4,136.1 182.3,136.1 186.1,131.2 190.0,133.4 193.8,137.1 197.7,135.0 201.5,136.1 205.4,130.2 209.2,122.6 213.1,130.2 217.0,124.2 220.8,131.2 224.7,116.7 228.5,103.3 232.4,118.9 236.2,117.8 240.1,109.2 244.0,115.6 247.8,100.0 251.7,109.7 255.5,102.2 259.4,100.0 263.2,115.6 267.1,106.0 270.9,95.2 274.8,103.3 278.7,96.3 282.5,91.4 286.4,100.0 290.2,79.6 294.1,94.1 297.9,67.8 301.8,58.1 305.7,68.9 309.5,65.1 313.4,57.0 317.2,61.9 321.1,62.9 324.9,69.9 328.8,64.0 332.6,88.8 336.5,79.6 340.4,39.8 344.2,59.2 348.1,71.5 351.9,51.1 355.8,74.8 359.6,69.9 363.5,103.3 367.4,66.7 371.2,86.6 375.1,78.5 378.9,77.5 382.8,54.9 386.6,58.1 390.5,50.0 394.3,46.8 398.2,59.2 402.1,42.0 405.9,28.0 409.8,61.9 413.6,65.1 417.5,47.9 421.3,51.1 425.2,47.9 429.1,58.1 432.9,38.2 436.8,56.0 440.6,58.1 444.5,74.8 448.3,56.0 452.2,77.5 456.0,62.9 459.9,67.8 463.8,72.6 467.6,71.0 471.5,54.3 475.3,74.8 479.2,57.0 483.0,100.0 486.9,158.1 490.8,160.8 494.6,171.0 498.5,173.2 502.3,175.9 506.2,166.7 510.0,171.0 513.9,166.7 517.7,167.3 521.6,171.0 525.5,169.4 529.3,167.3 533.2,163.5 537.0,171.0 540.9,172.1 544.7,160.8 548.6,161.9 552.5,162.9 556.3,167.3 560.2,168.3 564.0,174.2 567.9,174.2 571.7,173.2 575.6,173.2 579.4,171.0 583.3,173.2 587.2,169.4 591.0,171.0 594.9,169.4 598.7,172.1 602.6,175.9 606.4,171.0 610.3,169.4 614.2,168.3 618.0,167.3 621.9,163.5 625.7,171.0 629.6,169.4 633.4,171.0 637.3,171.0 641.1,171.0 645.0,172.1 648.9,166.7 652.7,171.0 656.6,171.0 660.4,174.2 664.3,171.0 668.1,169.4 672.0,167.3" fill="none" stroke="#102a43" stroke-width="3"/><polyline points="31.9,168.3 35.7,166.7 39.6,165.6 39.6,168.3 43.4,162.9 43.4,166.7 47.3,165.6 47.3,165.6 51.1,163.5 51.1,162.9 51.1,168.3 55.0,162.9 55.0,165.6 55.0,166.7 58.9,165.6 58.9,163.5 58.9,165.6 62.7,165.6 62.7,162.9 62.7,162.9 66.6,164.6 66.6,165.6 66.6,165.6 70.4,153.3 70.4,165.6 70.4,163.5 74.3,157.0 74.3,164.6 74.3,162.9 78.1,154.9 78.1,153.3 78.1,165.6 82.0,161.9 82.0,157.0 82.0,165.6 85.8,164.6 85.8,154.9 85.8,164.6 89.7,156.0 89.7,161.9 89.7,153.3 93.6,166.7 93.6,164.6 93.6,157.0 97.4,160.8 97.4,156.0 97.4,154.9 101.3,162.9 101.3,166.7 101.3,161.9 105.1,163.5 105.1,160.8 105.1,164.6 109.0,159.7 109.0,162.9 109.0,156.0 112.8,167.3 112.8,163.5 112.8,166.7 116.7,171.0 116.7,159.7 116.7,160.8 120.6,167.3 120.6,167.3 120.6,162.9 124.4,167.3 124.4,171.0 124.4,163.5 128.3,173.2 128.3,167.3 128.3,159.7 132.1,167.3 132.1,167.3 132.1,167.3 136.0,168.3 136.0,173.2 136.0,171.0 139.8,167.3 139.8,167.3 139.8,167.3 143.7,166.7 143.7,168.3 143.7,167.3 147.5,168.3 147.5,167.3 147.5,173.2 151.4,160.8 151.4,166.7 151.4,167.3 155.3,157.0 155.3,168.3 155.3,168.3 159.1,154.9 159.1,160.8 159.1,167.3 163.0,137.7 163.0,157.0 163.0,166.7 166.8,150.6 166.8,154.9 166.8,168.3 170.7,139.8 170.7,137.7 170.7,160.8 174.5,150.6 174.5,150.6 174.5,157.0 178.4,149.5 178.4,139.8 178.4,154.9 182.3,136.1 182.3,150.6 182.3,137.7 186.1,136.1 186.1,149.5 186.1,150.6 190.0,131.2 190.0,136.1 190.0,139.8 193.8,133.4 193.8,136.1 193.8,150.6 197.7,137.1 197.7,131.2 197.7,149.5 201.5,135.0 201.5,133.4 201.5,136.1 205.4,136.1 205.4,137.1 205.4,136.1 209.2,130.2 209.2,135.0 209.2,131.2 213.1,122.6 213.1,136.1 213.1,133.4 217.0,130.2 217.0,130.2 217.0,137.1 220.8,124.2 220.8,122.6 220.8,135.0 224.7,131.2 224.7,130.2 224.7,136.1 228.5,116.7 228.5,124.2 228.5,130.2 232.4,103.3 232.4,131.2 232.4,122.6 236.2,118.9 236.2,116.7 236.2,130.2 240.1,117.8 240.1,103.3 240.1,124.2 244.0,109.2 244.0,118.9 244.0,131.2 247.8,115.6 247.8,117.8 247.8,116.7 251.7,100.0 251.7,109.2 251.7,103.3 255.5,109.7 255.5,115.6 255.5,118.9 259.4,102.2 259.4,100.0 259.4,117.8 263.2,100.0 263.2,109.7 263.2,109.2 267.1,115.6 267.1,102.2 267.1,115.6 270.9,106.0 270.9,100.0 270.9,100.0 274.8,95.2 274.8,115.6 274.8,109.7 278.7,103.3 278.7,106.0 278.7,102.2 282.5,96.3 282.5,95.2 282.5,100.0 286.4,91.4 286.4,103.3 286.4,115.6 290.2,100.0 290.2,96.3 290.2,106.0 294.1,79.6 294.1,91.4 294.1,95.2 297.9,94.1 297.9,100.0 297.9,103.3 301.8,67.8 301.8,79.6 301.8,96.3 305.7,58.1 305.7,94.1 305.7,91.4 309.5,68.9 309.5,67.8 309.5,100.0 313.4,65.1 313.4,58.1 313.4,79.6 317.2,57.0 317.2,68.9 317.2,94.1 321.1,61.9 321.1,65.1 321.1,67.8 324.9,62.9 324.9,57.0 324.9,58.1 328.8,69.9 328.8,61.9 328.8,68.9 332.6,64.0 332.6,62.9 332.6,65.1 336.5,88.8 336.5,69.9 336.5,57.0 340.4,79.6 340.4,64.0 340.4,61.9 344.2,39.8 344.2,88.8 344.2,62.9 348.1,59.2 348.1,79.6 348.1,69.9 351.9,71.5 351.9,39.8 351.9,64.0 355.8,51.1 355.8,59.2 355.8,88.8 359.6,74.8 359.6,71.5 359.6,79.6 363.5,69.9 363.5,51.1 363.5,39.8 367.4,103.3 367.4,74.8 367.4,59.2 371.2,66.7 371.2,69.9 371.2,71.5 375.1,86.6 375.1,103.3 375.1,51.1 378.9,78.5 378.9,66.7 378.9,74.8 382.8,77.5 382.8,86.6 382.8,69.9 386.6,54.9 386.6,78.5 386.6,103.3 390.5,58.1 390.5,77.5 390.5,66.7 394.3,50.0 394.3,54.9 394.3,86.6 398.2,46.8 398.2,58.1 398.2,78.5 402.1,59.2 402.1,50.0 402.1,77.5 405.9,42.0 405.9,46.8 405.9,54.9 409.8,28.0 409.8,59.2 409.8,58.1 413.6,61.9 413.6,42.0 413.6,50.0 417.5,65.1 417.5,28.0 417.5,46.8 421.3,47.9 421.3,61.9 421.3,59.2 425.2,51.1 425.2,65.1 425.2,42.0 429.1,47.9 429.1,47.9 429.1,28.0 432.9,58.1 432.9,51.1 432.9,61.9 436.8,38.2 436.8,47.9 436.8,65.1 440.6,56.0 440.6,58.1 440.6,47.9 444.5,58.1 444.5,38.2 444.5,51.1 448.3,74.8 448.3,56.0 448.3,47.9 452.2,56.0 452.2,58.1 452.2,58.1 456.0,77.5 456.0,74.8 456.0,38.2 459.9,62.9 459.9,56.0 459.9,56.0 463.8,67.8 463.8,77.5 463.8,58.1 467.6,72.6 467.6,62.9 467.6,74.8 471.5,71.0 471.5,67.8 471.5,56.0 475.3,54.3 475.3,72.6 475.3,77.5 479.2,74.8 479.2,71.0 479.2,62.9 483.0,57.0 483.0,54.3 483.0,67.8 486.9,100.0 486.9,74.8 486.9,72.6 490.8,158.1 490.8,57.0 490.8,71.0 494.6,160.8 494.6,100.0 494.6,54.3 498.5,171.0 498.5,158.1 498.5,74.8 502.3,173.2 502.3,160.8 502.3,57.0 506.2,175.9 506.2,171.0 506.2,100.0 510.0,166.7 510.0,173.2 510.0,158.1 513.9,171.0 513.9,175.9 513.9,160.8 517.7,166.7 517.7,166.7 517.7,171.0 521.6,167.3 521.6,171.0 521.6,173.2 525.5,171.0 525.5,166.7 525.5,175.9 529.3,169.4 529.3,167.3 529.3,166.7 533.2,167.3 533.2,171.0 533.2,171.0 537.0,163.5 537.0,169.4 537.0,166.7 540.9,171.0 540.9,167.3 540.9,167.3 544.7,172.1 544.7,163.5 544.7,171.0 548.6,160.8 548.6,171.0 548.6,169.4 552.5,161.9 552.5,172.1 552.5,167.3 556.3,162.9 556.3,160.8 556.3,163.5 560.2,167.3 560.2,161.9 560.2,171.0 564.0,168.3 564.0,162.9 564.0,172.1 567.9,174.2 567.9,167.3 567.9,160.8 571.7,174.2 571.7,168.3 571.7,161.9 575.6,173.2 575.6,174.2 575.6,162.9 579.4,173.2 579.4,174.2 579.4,167.3 583.3,171.0 583.3,173.2 583.3,168.3 587.2,173.2 587.2,173.2 587.2,174.2 591.0,169.4 591.0,171.0 591.0,174.2 594.9,171.0 594.9,173.2 594.9,173.2 598.7,169.4 598.7,169.4 598.7,173.2 602.6,172.1 602.6,171.0 602.6,171.0 606.4,175.9 606.4,169.4 606.4,173.2 610.3,171.0 610.3,172.1 610.3,169.4 614.2,169.4 614.2,175.9 614.2,171.0 618.0,168.3 618.0,171.0 618.0,169.4 621.9,167.3 621.9,169.4 621.9,172.1 625.7,163.5 625.7,168.3 625.7,175.9 629.6,171.0 629.6,167.3 629.6,171.0 633.4,169.4 633.4,163.5 633.4,169.4 637.3,171.0 637.3,171.0 637.3,168.3 641.1,171.0 641.1,169.4 641.1,167.3 645.0,171.0 645.0,171.0 645.0,163.5 648.9,172.1 648.9,171.0 648.9,171.0 652.7,166.7 652.7,171.0 652.7,169.4 656.6,171.0 656.6,172.1 656.6,171.0 660.4,171.0 660.4,166.7 660.4,171.0 664.3,174.2 664.3,171.0 664.3,171.0 668.1,171.0 668.1,171.0 668.1,172.1 672.0,169.4 672.0,174.2 672.0,166.7" fill="none" stroke="#2d6cdf" stroke-width="2" opacity="0.8"/><polyline points="31.9,165.5 35.7,165.3 39.6,166.9 39.6,165.5 43.4,165.1 43.4,165.3 47.3,164.7 47.3,166.9 51.1,164.0 51.1,165.1 51.1,165.5 55.0,164.0 55.0,164.7 55.0,165.3 58.9,164.0 58.9,164.0 58.9,166.9 62.7,164.7 62.7,164.0 62.7,165.1 66.6,165.3 66.6,164.0 66.6,164.7 70.4,161.2 70.4,164.7 70.4,164.0 74.3,158.3 74.3,165.3 74.3,164.0 78.1,155.1 78.1,161.2 78.1,164.0 82.0,157.9 82.0,158.3 82.0,164.7 85.8,160.4 85.8,155.1 85.8,165.3 89.7,160.8 89.7,157.9 89.7,161.2 93.6,162.4 93.6,160.4 93.6,158.3 97.4,161.2 97.4,160.8 97.4,155.1 101.3,163.5 101.3,162.4 101.3,157.9 105.1,162.4 105.1,161.2 105.1,160.4 109.0,162.1 109.0,163.5 109.0,160.8 112.8,163.5 112.8,162.4 112.8,162.4 116.7,166.0 116.7,162.1 116.7,161.2 120.6,168.5 120.6,163.5 120.6,163.5 124.4,168.5 124.4,166.0 124.4,162.4 128.3,169.2 128.3,168.5 128.3,162.1 132.1,169.2 132.1,168.5 132.1,163.5 136.0,169.6 136.0,169.2 136.0,166.0 139.8,167.6 139.8,169.2 139.8,168.5 143.7,167.4 143.7,169.6 143.7,168.5 147.5,167.4 147.5,167.6 147.5,169.2 151.4,165.3 151.4,167.4 151.4,169.2 155.3,162.1 155.3,167.4 155.3,169.6 159.1,157.6 159.1,165.3 159.1,167.6 163.0,149.9 163.0,162.1 163.0,167.4 166.8,147.7 166.8,157.6 166.8,167.4 170.7,142.7 170.7,149.9 170.7,165.3 174.5,147.0 174.5,147.7 174.5,162.1 178.4,146.6 178.4,142.7 178.4,157.6 182.3,145.4 182.3,147.0 182.3,149.9 186.1,140.5 186.1,146.6 186.1,147.7 190.0,134.5 190.0,145.4 190.0,142.7 193.8,133.6 193.8,140.5 193.8,147.0 197.7,133.9 197.7,134.5 197.7,146.6 201.5,135.2 201.5,133.6 201.5,145.4 205.4,136.1 205.4,133.9 205.4,140.5 209.2,133.7 209.2,135.2 209.2,134.5 213.1,129.6 213.1,136.1 213.1,133.6 217.0,127.6 217.0,133.7 217.0,133.9 220.8,125.7 220.8,129.6 220.8,135.2 224.7,128.5 224.7,127.6 224.7,136.1 228.5,124.1 228.5,125.7 228.5,133.7 232.4,117.1 232.4,128.5 232.4,129.6 236.2,112.9 236.2,124.1 236.2,127.6 240.1,113.3 240.1,117.1 240.1,125.7 244.0,115.3 244.0,112.9 244.0,128.5 247.8,114.2 247.8,113.3 247.8,124.1 251.7,108.3 251.7,115.3 251.7,117.1 255.5,108.5 255.5,114.2 255.5,112.9 259.4,104.0 259.4,108.3 259.4,113.3 263.2,104.0 263.2,108.5 263.2,115.3 267.1,106.0 267.1,104.0 267.1,114.2 270.9,107.2 270.9,104.0 270.9,108.3 274.8,105.6 274.8,106.0 274.8,108.5 278.7,101.5 278.7,107.2 278.7,104.0 282.5,98.3 282.5,105.6 282.5,104.0 286.4,97.0 286.4,101.5 286.4,106.0 290.2,95.9 290.2,98.3 290.2,107.2 294.1,90.4 294.1,97.0 294.1,105.6 297.9,91.3 297.9,95.9 297.9,101.5 301.8,80.5 301.8,90.4 301.8,98.3 305.7,73.3 305.7,91.3 305.7,97.0 309.5,64.9 309.5,80.5 309.5,95.9 313.4,64.0 313.4,73.3 313.4,90.4 317.2,63.7 317.2,64.9 317.2,91.3 321.1,61.3 321.1,64.0 321.1,80.5 324.9,60.6 324.9,63.7 324.9,73.3 328.8,64.9 328.8,61.3 328.8,64.9 332.6,65.6 332.6,60.6 332.6,64.0 336.5,74.2 336.5,64.9 336.5,63.7 340.4,77.5 340.4,65.6 340.4,61.3 344.2,69.4 344.2,74.2 344.2,60.6 348.1,59.5 348.1,77.5 348.1,64.9 351.9,56.9 351.9,69.4 351.9,65.6 355.8,60.6 355.8,59.5 355.8,74.2 359.6,65.8 359.6,56.9 359.6,77.5 363.5,65.3 363.5,60.6 363.5,69.4 367.4,82.7 367.4,65.8 367.4,59.5 371.2,80.0 371.2,65.3 371.2,56.9 375.1,85.5 375.1,82.7 375.1,60.6 378.9,77.3 378.9,80.0 378.9,65.8 382.8,80.9 382.8,85.5 382.8,65.3 386.6,70.3 386.6,77.3 386.6,82.7 390.5,63.5 390.5,80.9 390.5,80.0 394.3,54.3 394.3,70.3 394.3,85.5 398.2,51.7 398.2,63.5 398.2,77.3 402.1,52.0 402.1,54.3 402.1,80.9 405.9,49.3 405.9,51.7 405.9,70.3 409.8,43.1 409.8,52.0 409.8,63.5 413.6,44.0 413.6,49.3 413.6,54.3 417.5,51.7 417.5,43.1 417.5,51.7 421.3,58.3 421.3,44.0 421.3,52.0 425.2,54.7 425.2,51.7 425.2,49.3 429.1,49.0 429.1,58.3 429.1,43.1 432.9,52.4 432.9,54.7 432.9,44.0 436.8,48.1 436.8,49.0 436.8,51.7 440.6,50.8 440.6,52.4 440.6,58.3 444.5,50.8 444.5,48.1 444.5,54.7 448.3,62.9 448.3,50.8 448.3,49.0 452.2,62.9 452.2,50.8 452.2,52.4 456.0,69.4 456.0,62.9 456.0,48.1 459.9,65.5 459.9,62.9 459.9,50.8 463.8,69.4 463.8,69.4 463.8,50.8 467.6,67.8 467.6,65.5 467.6,62.9 471.5,70.5 471.5,69.4 471.5,62.9 475.3,66.0 475.3,67.8 475.3,69.4 479.2,66.7 479.2,70.5 479.2,65.5 483.0,62.1 483.0,66.0 483.0,69.4 486.9,77.3 486.9,66.7 486.9,67.8 490.8,105.1 490.8,62.1 490.8,70.5 494.6,139.7 494.6,77.3 494.6,66.0 498.5,163.3 498.5,105.1 498.5,66.7 502.3,168.3 502.3,139.7 502.3,62.1 506.2,173.3 506.2,163.3 506.2,77.3 510.0,171.9 510.0,168.3 510.0,105.1 513.9,171.2 513.9,173.3 513.9,139.7 517.7,168.1 517.7,171.9 517.7,163.3 521.6,168.3 521.6,171.2 521.6,168.3 525.5,168.3 525.5,168.1 525.5,173.3 529.3,169.2 529.3,168.3 529.3,171.9 533.2,169.2 533.2,168.3 533.2,171.2 537.0,166.7 537.0,169.2 537.0,168.1 540.9,167.3 540.9,169.2 540.9,168.3 544.7,168.9 544.7,166.7 544.7,168.3 548.6,168.0 548.6,167.3 548.6,169.2 552.5,164.9 552.5,168.9 552.5,169.2 556.3,161.9 556.3,168.0 556.3,166.7 560.2,164.0 560.2,164.9 560.2,167.3 564.0,166.2 564.0,161.9 564.0,168.9 567.9,169.9 567.9,164.0 567.9,168.0 571.7,172.3 571.7,166.2 571.7,164.9 575.6,173.9 575.6,169.9 575.6,161.9 579.4,173.5 579.4,172.3 579.4,164.0 583.3,172.4 583.3,173.9 583.3,166.2 587.2,172.4 587.2,173.5 587.2,169.9 591.0,171.2 591.0,172.4 591.0,172.3 594.9,171.2 594.9,172.4 594.9,173.9 598.7,169.9 598.7,171.2 598.7,173.5 602.6,170.8 602.6,171.2 602.6,172.4 606.4,172.4 606.4,169.9 606.4,172.4 610.3,173.0 610.3,170.8 610.3,171.2 614.2,172.1 614.2,172.4 614.2,171.2 618.0,169.6 618.0,173.0 618.0,169.9 621.9,168.3 621.9,172.1 621.9,170.8 625.7,166.4 625.7,169.6 625.7,172.4 629.6,167.3 629.6,168.3 629.6,173.0 633.4,168.0 633.4,166.4 633.4,172.1 637.3,170.5 637.3,167.3 637.3,169.6 641.1,170.5 641.1,168.0 641.1,168.3 645.0,171.0 645.0,170.5 645.0,166.4 648.9,171.4 648.9,170.5 648.9,167.3 652.7,169.9 652.7,171.0 652.7,168.0 656.6,169.9 656.6,171.4 656.6,170.5 660.4,169.6 660.4,169.9 660.4,170.5 664.3,172.1 664.3,169.9 664.3,171.0 668.1,172.1 668.1,169.6 668.1,171.4 672.0,171.6 672.0,172.1 672.0,169.9" fill="none" stroke="#5f9f58" stroke-width="2" opacity="0.8"/><polyline points="31.9,166.0 35.7,164.5 39.6,165.4 39.6,163.0 43.4,163.0 43.4,162.8 47.3,164.5 47.3,164.4 51.1,162.6 51.1,162.3 51.1,162.3 55.0,162.8 55.0,163.4 55.0,159.8 58.9,164.2 58.9,161.1 58.9,162.4 62.7,163.9 62.7,162.0 62.7,159.5 66.6,163.5 66.6,162.3 66.6,161.1 70.4,154.9 70.4,161.8 70.4,157.1 74.3,156.9 74.3,161.1 74.3,159.0 78.1,154.2 78.1,155.0 78.1,159.1 82.0,159.9 82.0,154.6 82.0,159.1 85.8,161.9 85.8,153.4 85.8,158.6 89.7,155.3 89.7,156.8 89.7,152.6 93.6,164.1 93.6,159.0 93.6,151.2 97.4,158.9 97.4,153.1 97.4,147.5 101.3,161.9 101.3,160.0 101.3,152.4 105.1,161.9 105.1,157.9 105.1,155.3 109.0,158.8 109.0,158.9 109.0,153.2 112.8,165.8 112.8,159.5 112.8,158.9 116.7,168.0 116.7,157.2 116.7,155.6 120.6,166.3 120.6,164.0 120.6,157.4 124.4,166.4 124.4,166.1 124.4,156.3 128.3,170.3 128.3,165.2 128.3,155.8 132.1,166.9 132.1,164.1 132.1,160.6 136.0,167.9 136.0,167.7 136.0,163.6 139.8,166.5 139.8,167.0 139.8,164.1 143.7,166.0 143.7,165.5 143.7,163.2 147.5,167.5 147.5,165.7 147.5,166.1 151.4,161.4 151.4,165.0 151.4,164.3 155.3,158.1 155.3,165.9 155.3,163.1 159.1,155.1 159.1,161.4 159.1,162.5 163.0,141.4 163.0,156.9 163.0,161.9 166.8,150.4 166.8,153.8 166.8,161.7 170.7,139.5 170.7,142.6 170.7,158.4 174.5,148.8 174.5,147.2 174.5,153.5 178.4,146.8 178.4,138.9 178.4,148.8 182.3,136.5 182.3,143.9 182.3,137.0 186.1,136.8 186.1,143.2 186.1,140.5 190.0,130.8 190.0,134.2 190.0,131.4 193.8,133.2 193.8,133.6 193.8,140.4 197.7,135.5 197.7,129.1 197.7,139.0 201.5,133.4 201.5,130.8 201.5,135.2 205.4,135.4 205.4,132.4 205.4,130.9 209.2,129.7 209.2,130.4 209.2,125.2 213.1,124.6 213.1,133.7 213.1,125.4 217.0,129.1 217.0,127.9 217.0,127.3 220.8,123.7 220.8,124.7 220.8,129.0 224.7,130.4 224.7,126.3 224.7,133.1 228.5,118.3 228.5,122.7 228.5,127.4 232.4,108.0 232.4,127.9 232.4,123.3 236.2,118.2 236.2,118.9 236.2,122.7 240.1,115.6 240.1,109.3 240.1,118.8 244.0,111.0 244.0,116.4 244.0,125.8 247.8,114.5 247.8,115.1 247.8,117.1 251.7,101.2 251.7,109.3 251.7,109.2 255.5,110.2 255.5,110.7 255.5,111.1 259.4,102.4 259.4,102.2 259.4,109.8 263.2,101.2 263.2,108.4 263.2,107.5 267.1,112.2 267.1,102.4 267.1,110.8 270.9,104.8 270.9,100.1 270.9,102.6 274.8,99.3 274.8,107.8 274.8,106.7 278.7,102.8 278.7,105.0 278.7,98.5 282.5,96.4 282.5,100.4 282.5,99.9 286.4,94.6 286.4,101.1 286.4,105.2 290.2,99.1 290.2,97.6 290.2,105.9 294.1,83.2 294.1,95.3 294.1,102.4 297.9,94.6 297.9,97.2 297.9,101.1 301.8,72.2 301.8,87.1 301.8,95.9 305.7,65.2 305.7,92.0 305.7,93.0 309.5,69.6 309.5,77.0 309.5,95.4 313.4,64.8 313.4,67.3 313.4,86.7 317.2,60.8 317.2,68.4 317.2,91.2 321.1,61.6 321.1,65.4 321.1,74.1 324.9,61.4 324.9,60.7 324.9,67.1 328.8,68.2 328.8,58.5 328.8,60.9 332.6,63.3 332.6,60.1 332.6,61.6 336.5,83.6 336.5,65.8 336.5,58.3 340.4,76.4 340.4,61.1 340.4,60.0 344.2,49.9 344.2,79.3 344.2,61.8 348.1,63.6 348.1,75.3 348.1,67.2 351.9,68.2 351.9,55.9 351.9,64.1 355.8,56.4 355.8,65.6 355.8,84.7 359.6,75.0 359.6,72.0 359.6,79.8 363.5,67.0 363.5,61.2 363.5,63.9 367.4,96.7 367.4,72.6 367.4,66.5 371.2,69.6 371.2,69.5 371.2,66.6 375.1,86.9 375.1,92.3 375.1,58.7 378.9,77.6 378.9,74.2 378.9,74.6 382.8,79.1 382.8,84.6 382.8,74.8 386.6,64.8 386.6,80.3 386.6,99.0 390.5,62.9 390.5,80.8 390.5,79.2 394.3,54.6 394.3,74.4 394.3,96.8 398.2,52.4 398.2,67.5 398.2,79.8 402.1,59.2 402.1,60.2 402.1,84.9 405.9,44.6 405.9,57.9 405.9,71.1 409.8,33.0 409.8,58.8 409.8,68.8 413.6,58.1 413.6,47.8 413.6,53.9 417.5,58.7 417.5,31.4 417.5,54.8 421.3,50.5 421.3,55.3 421.3,55.5 425.2,52.0 425.2,56.9 425.2,49.4 429.1,48.2 429.1,49.0 429.1,34.2 432.9,58.4 432.9,49.2 432.9,55.0 436.8,43.4 436.8,52.0 436.8,57.2 440.6,56.7 440.6,59.6 440.6,55.8 444.5,56.2 444.5,48.9 444.5,57.5 448.3,71.9 448.3,56.8 448.3,57.4 452.2,59.6 452.2,58.0 452.2,59.7 456.0,74.7 456.0,71.6 456.0,49.1 459.9,63.3 459.9,65.6 459.9,61.3 463.8,70.2 463.8,71.7 463.8,58.6 467.6,73.3 467.6,67.1 467.6,77.5 471.5,71.8 471.5,72.6 471.5,70.9 475.3,60.3 475.3,76.5 475.3,81.9 479.2,75.5 479.2,75.9 479.2,70.2 483.0,59.9 483.0,65.2 483.0,78.7 486.9,94.9 486.9,78.2 486.9,76.6 490.8,138.2 490.8,66.6 490.8,80.5 494.6,147.6 494.6,90.8 494.6,66.9 498.5,163.3 498.5,128.8 498.5,80.8 502.3,166.7 502.3,143.6 502.3,66.0 506.2,173.7 506.2,155.2 506.2,93.7 510.0,171.0 510.0,167.8 510.0,131.9 513.9,174.8 513.9,179.2 513.9,162.6 517.7,172.1 517.7,180.0 517.7,180.4 521.6,171.9 521.6,183.2 521.6,191.0 525.5,175.4 525.5,184.6 525.5,192.0 529.3,171.4 529.3,180.9 529.3,180.9 533.2,167.3 533.2,185.8 533.2,182.7 537.0,163.7 537.0,177.3 537.0,180.2 540.9,168.7 540.9,166.4 540.9,177.0 544.7,169.4 544.7,163.2 544.7,180.9 548.6,161.3 548.6,165.7 548.6,174.6 552.5,162.2 552.5,166.8 552.5,163.7 556.3,161.4 556.3,159.4 556.3,160.5 560.2,165.5 560.2,160.2 560.2,162.2 564.0,166.5 564.0,159.9 564.0,162.6 567.9,170.7 567.9,163.3 567.9,157.3 571.7,171.3 571.7,163.8 571.7,157.8 575.6,171.4 575.6,166.4 575.6,155.4 579.4,172.0 579.4,168.1 579.4,158.4 583.3,169.9 583.3,168.8 583.3,159.8 587.2,171.9 587.2,170.3 587.2,165.5 591.0,169.4 591.0,168.3 591.0,167.4 594.9,170.6 594.9,169.6 594.9,168.7 598.7,168.9 598.7,169.2 598.7,168.8 602.6,170.7 602.6,169.4 602.6,165.9 606.4,173.5 606.4,168.1 606.4,166.0 610.3,169.7 610.3,168.6 610.3,165.3 614.2,168.9 614.2,171.1 614.2,166.0 618.0,167.4 618.0,167.4 618.0,164.1 621.9,166.5 621.9,166.3 621.9,165.4 625.7,163.7 625.7,165.6 625.7,167.4 629.6,168.8 629.6,164.9 629.6,165.3 633.4,167.4 633.4,162.5 633.4,164.2 637.3,169.3 637.3,165.5 637.3,162.3 641.1,169.2 641.1,165.5 641.1,160.7 645.0,169.1 645.0,166.0 645.0,157.6 648.9,170.2 648.9,166.6 648.9,161.4 652.7,166.3 652.7,166.5 652.7,161.6 656.6,169.8 656.6,167.2 656.6,164.1 660.4,169.3 660.4,164.8 660.4,164.5 664.3,172.3 664.3,167.3 664.3,165.0 668.1,170.2 668.1,167.7 668.1,164.3 672.0,168.5 672.0,169.9 672.0,162.1" fill="none" stroke="#b7791f" stroke-width="2" opacity="0.8"/></svg>