<svg xmlns="http://www.w3.org/2000/svg" viewBox="0 0 700 250"><rect width="700" height="250" fill="white"/><text x="28" y="20" font-family="Arial" font-size="14" font-weight="700">Experiment B rapid-removal focus</text><rect x="-5124.0" y="42" width="1212.2" height="164" fill="#e8eef7" opacity="0.72"/><rect x="-3873.9" y="42" width="4129.2" height="164" fill="#fff0c9" opacity="0.72"/><rect x="255.3" y="42" width="113.6" height="164" fill="#d9f3ee" opacity="0.72"/><rect x="406.8" y="42" width="1704.7" height="164" fill="#eef8e8" opacity="0.72"/><rect x="255.3" y="38" width="113.6" height="172" fill="none" stroke="#0f766e" stroke-width="2" stroke-dasharray="5 4"/><line x1="28" y1="206" x2="672" y2="206" stroke="#aab3bd"/><line x1="28" y1="42" x2="28" y2="206" stroke="#aab3bd"/><polyline points="28.0,72.6 65.9,81.6 103.8,64.3 141.6,72.6 179.5,55.4 217.4,39.9 255.3,45.9 293.2,154.2 331.1,169.1 368.9,161.9 406.8,169.1 444.7,170.9 482.6,166.7 520.5,173.3 558.4,173.3 596.2,172.1 634.1,170.3 672.0,173.3" fill="none" stroke="#102a43" stroke-width="3"/><polyline points="28.0,58.4 28.0,28.0 28.0,56.6 65.9,72.6 65.9,32.2 65.9,46.5 103.8,81.6 103.8,58.4 103.8,31.0 141.6,64.3 141.6,72.6 141.6,28.0 179.5,72.6 179.5,81.6 179.5,32.2 217.4,55.4 217.4,64.3 217.4,58.4 255.3,39.9 255.3,72.6 255.3,72.6 293.2,45.9 293.2,55.4 293.2,81.6 331.1,154.2 331.1,39.9 331.1,64.3 368.9,169.1 368.9,45.9 368.9,72.6 406.8,161.9 406.8,154.2 406.8,55.4 444.7,169.1 444.7,169.1 444.7,39.9 482.6,170.9 482.6,161.9 482.6,45.9 520.5,166.7 520.5,169.1 520.5,154.2 558.4,173.3 558.4,170.9 558.4,169.1 596.2,173.3 596.2,166.7 596.2,161.9 634.1,172.1 634.1,173.3 634.1,169.1 672.0,170.3 672.0,173.3 672.0,170.9" fill="none" stroke="#2d6cdf" stroke-width="2" opacity="0.8"/><polyline points="28.0,39.5 28.0,35.1 28.0,39.7 65.9,54.4 65.9,30.4 65.9,43.3 103.8,70.9 103.8,39.5 103.8,44.7 141.6,72.8 141.6,54.4 141.6,35.1 179.5,72.8 179.5,70.9 179.5,30.4 217.4,64.1 217.4,72.8 217.4,39.5 255.3,56.0 255.3,72.8 255.3,54.4 293.2,47.0 293.2,64.1 293.2,70.9 331.1,80.0 331.1,56.0 331.1,72.8 368.9,123.0 368.9,47.0 368.9,72.8 406.8,161.7 406.8,80.0 406.8,64.1 444.7,166.7 444.7,123.0 444.7,56.0 482.6,167.3 482.6,161.7 482.6,47.0 520.5,168.9 520.5,166.7 520.5,80.0 558.4,170.3 558.4,167.3 558.4,123.0 596.2,171.1 596.2,168.9 596.2,161.7 634.1,172.9 634.1,170.3 634.1,166.7 672.0,171.9 672.0,171.1 672.0,167.3" fill="none" stroke="#5f9f58" stroke-width="2" opacity="0.8"/><polyline points="28.0,53.4 28.0,30.8 28.0,64.4 65.9,72.0 65.9,34.2 65.9,56.3 103.8,84.5 103.8,64.8 103.8,50.1 141.6,72.7 141.6,80.9 141.6,39.5 179.5,71.6 179.5,88.3 179.5,41.1 217.4,61.3 217.4,68.3 217.4,66.8 255.3,46.9 255.3,70.8 255.3,80.1 293.2,46.7 293.2,65.6 293.2,92.5 331.1,122.1 331.1,46.7 331.1,74.9 368.9,170.0 368.9,54.0 368.9,80.4 406.8,178.6 406.8,148.9 406.8,74.3 444.7,170.2 444.7,192.0 444.7,56.5 482.6,162.1 482.6,171.4 482.6,61.6 520.5,169.4 520.5,159.8 520.5,142.9 558.4,174.9 558.4,155.7 558.4,180.3 596.2,174.8 596.2,172.6 596.2,177.9 634.1,176.1 634.1,182.3 634.1,167.2 672.0,175.1 672.0,181.3 672.0,160.8" fill="none" stroke="#b7791f" stroke-width="2" opacity="0.8"/></svg>