<svg xmlns="http://www.w3.org/2000/svg" viewBox="0 0 700 250"><rect width="700" height="250" fill="white"/><text x="28" y="20" font-family="Arial" font-size="14" font-weight="700">Experiment A rapid-removal focus</text><rect x="-3943.3" y="42" width="1144.9" height="164" fill="#e8eef7" opacity="0.72"/><rect x="-2762.7" y="42" width="3005.3" height="164" fill="#fff0c9" opacity="0.72"/><rect x="242.7" y="42" width="143.1" height="164" fill="#d9f3ee" opacity="0.72"/><rect x="421.6" y="42" width="1610.0" height="164" fill="#eef8e8" opacity="0.72"/><rect x="242.7" y="38" width="143.1" height="172" fill="none" stroke="#0f766e" stroke-width="2" stroke-dasharray="5 4"/><line x1="28" y1="206" x2="672" y2="206" stroke="#aab3bd"/><line x1="28" y1="42" x2="28" y2="206" stroke="#aab3bd"/><polyline points="28.0,54.4 63.8,59.5 99.6,64.7 135.3,63.0 171.1,45.2 206.9,67.0 242.7,48.1 278.4,93.9 314.2,155.9 350.0,158.7 385.8,169.6 421.6,171.9 457.3,174.8 493.1,165.0 528.9,169.6 564.7,165.0 600.4,165.6 636.2,169.6 672.0,167.9" fill="none" stroke="#102a43" stroke-width="3"/><polyline points="28.0,69.9 28.0,67.0 28.0,28.0 63.8,54.4 63.8,46.9 63.8,46.9 99.6,59.5 99.6,69.9 99.6,49.2 135.3,64.7 135.3,54.4 135.3,67.0 171.1,63.0 171.1,59.5 171.1,46.9 206.9,45.2 206.9,64.7 206.9,69.9 242.7,67.0 242.7,63.0 242.7,54.4 278.4,48.1 278.4,45.2 278.4,59.5 314.2,93.9 314.2,67.0 314.2,64.7 350.0,155.9 350.0,48.1 350.0,63.0 385.8,158.7 385.8,93.9 385.8,45.2 421.6,169.6 421.6,155.9 421.6,67.0 457.3,171.9 457.3,158.7 457.3,48.1 493.1,174.8 493.1,169.6 493.1,93.9 528.9,165.0 528.9,171.9 528.9,155.9 564.7,169.6 564.7,174.8 564.7,158.7 600.4,165.0 600.4,165.0 600.4,169.6 636.2,165.6 636.2,169.6 636.2,171.9 672.0,169.6 672.0,165.0 672.0,174.8" fill="none" stroke="#2d6cdf" stroke-width="2" opacity="0.8"/><polyline points="28.0,61.3 28.0,54.4 28.0,38.5 63.8,57.1 63.8,54.4 63.8,41.4 99.6,61.3 99.6,61.3 99.6,41.4 135.3,59.5 135.3,57.1 135.3,54.4 171.1,62.4 171.1,61.3 171.1,54.4 206.9,57.6 206.9,59.5 206.9,61.3 242.7,58.4 242.7,62.4 242.7,57.1 278.4,53.4 278.4,57.6 278.4,61.3 314.2,69.7 314.2,58.4 314.2,59.5 350.0,99.3 350.0,53.4 350.0,62.4 385.8,136.2 385.8,69.7 385.8,57.6 421.6,161.4 421.6,99.3 421.6,58.4 457.3,166.8 457.3,136.2 457.3,53.4 493.1,172.1 493.1,161.4 493.1,69.7 528.9,170.6 528.9,166.8 528.9,99.3 564.7,169.8 564.7,172.1 564.7,136.2 600.4,166.6 600.4,170.6 600.4,161.4 636.2,166.8 636.2,169.8 636.2,166.8 672.0,166.8 672.0,166.6 672.0,172.1" fill="none" stroke="#5f9f58" stroke-width="2" opacity="0.8"/><polyline points="28.0,66.9 28.0,63.6 28.0,39.7 63.8,54.8 63.8,57.2 63.8,52.6 99.6,62.1 99.6,63.7 99.6,49.8 135.3,65.5 135.3,58.8 135.3,69.9 171.1,63.8 171.1,64.7 171.1,62.9 206.9,51.5 206.9,68.8 206.9,74.6 242.7,67.7 242.7,68.2 242.7,62.1 278.4,51.1 278.4,56.8 278.4,71.2 314.2,88.5 314.2,70.6 314.2,68.9 350.0,134.7 350.0,58.2 350.0,73.1 385.8,144.6 385.8,84.1 385.8,58.6 421.6,161.4 421.6,124.6 421.6,73.4 457.3,165.0 457.3,140.4 457.3,57.6 493.1,172.5 493.1,152.8 493.1,87.2 528.9,169.6 528.9,166.2 528.9,127.9 564.7,173.6 564.7,178.4 564.7,160.6 600.4,170.8 600.4,179.2 600.4,179.6 636.2,170.6 636.2,182.6 636.2,190.9 672.0,174.2 672.0,184.2 672.0,192.0" fill="none" stroke="#b7791f" stroke-width="2" opacity="0.8"/></svg>