<svg xmlns="http://www.w3.org/2000/svg" viewBox="0 0 700 250"><rect width="700" height="250" fill="white"/><text x="28" y="20" font-family="Arial" font-size="14" font-weight="700">Experiment B observed vs predicted</text><rect x="28.0" y="42" width="107.9" height="164" fill="#e8eef7" opacity="0.72"/><rect x="139.3" y="42" width="367.5" height="164" fill="#fff0c9" opacity="0.72"/><rect x="506.8" y="42" width="10.1" height="164" fill="#d9f3ee" opacity="0.72"/><rect x="520.3" y="42" width="151.7" height="164" fill="#eef8e8" opacity="0.72"/><rect x="506.8" y="38" width="10.1" height="172" fill="none" stroke="#0f766e" stroke-width="2" stroke-dasharray="5 4"/><line x1="28" y1="206" x2="672" y2="206" stroke="#aab3bd"/><line x1="28" y1="42" x2="28" y2="206" stroke="#aab3bd"/><polyline points="28.0,176.5 31.4,176.5 34.7,172.1 38.1,176.5 41.5,177.6 44.9,178.7 48.2,174.9 51.6,177.6 55.0,171.1 58.3,172.7 61.7,173.8 65.1,172.7 68.5,167.3 71.8,174.9 75.2,176.5 78.6,176.5 81.9,178.7 85.3,181.4 88.7,177.6 92.1,168.9 95.4,177.6 98.8,182.5 102.2,176.5 105.5,179.8 108.9,178.7 112.3,174.9 115.7,174.9 119.0,176.5 122.4,172.7 125.8,173.8 129.2,174.9 132.5,176.5 135.9,174.9 139.3,156.9 142.6,142.2 146.0,147.7 149.4,133.5 152.8,141.1 156.1,125.4 159.5,142.2 162.9,135.2 166.2,134.1 169.6,122.6 173.0,128.6 176.4,117.8 179.7,112.9 183.1,108.0 186.5,120.5 189.8,123.7 193.2,104.2 196.6,86.2 200.0,103.1 203.3,96.0 206.7,78.6 210.1,82.9 213.4,92.2 216.8,85.1 220.2,81.9 223.6,79.1 226.9,90.0 230.3,94.9 233.7,98.7 237.0,80.2 240.4,93.3 243.8,71.0 247.2,82.9 250.5,94.9 253.9,90.0 257.3,72.1 260.6,106.9 264.0,96.0 267.4,87.8 270.8,93.8 274.1,75.9 277.5,86.2 280.9,54.1 284.3,81.9 287.6,73.1 291.0,61.2 294.4,63.9 297.7,61.2 301.1,61.2 304.5,74.2 307.9,68.3 311.2,69.9 314.6,66.1 318.0,60.1 321.3,69.9 324.7,72.1 328.1,79.1 331.5,69.9 334.8,60.1 338.2,75.9 341.6,71.0 344.9,62.3 348.3,59.0 351.7,49.2 355.1,49.2 358.4,36.2 361.8,28.0 365.2,53.0 368.5,56.3 371.9,46.0 375.3,36.7 378.7,41.1 382.0,53.0 385.4,35.1 388.8,65.0 392.1,57.4 395.5,48.1 398.9,56.3 402.3,34.0 405.6,60.1 409.0,71.0 412.4,59.0 415.7,43.8 419.1,62.3 422.5,62.3 425.9,60.1 429.2,58.5 432.6,65.0 436.0,63.9 439.4,63.9 442.7,53.0 446.1,60.1 449.5,68.3 452.8,46.0 456.2,67.2 459.6,49.2 463.0,41.1 466.3,68.3 469.7,59.0 473.1,44.9 476.4,42.1 479.8,46.0 483.2,69.9 486.6,82.9 489.9,91.1 493.3,75.3 496.7,82.9 500.0,67.2 503.4,53.0 506.8,58.5 510.2,157.5 513.5,171.1 516.9,164.5 520.3,171.1 523.6,172.7 527.0,168.9 530.4,174.9 533.8,174.9 537.1,173.8 540.5,172.1 543.9,174.9 547.2,167.3 550.6,167.3 554.0,166.2 557.4,173.8 560.7,172.1 564.1,172.1 567.5,172.7 570.8,172.1 574.2,176.5 577.6,171.1 581.0,177.6 584.3,178.7 587.7,176.5 591.1,174.9 594.5,179.8 597.8,177.6 601.2,177.6 604.6,176.5 607.9,181.4 611.3,181.4 614.7,181.4 618.1,176.5 621.4,178.7 624.8,176.5 628.2,176.5 631.5,173.8 634.9,172.1 638.3,177.6 641.7,176.5 645.0,172.1 648.4,177.6 651.8,173.8 655.1,177.6 658.5,179.8 661.9,177.6 665.3,176.5 668.6,176.5 672.0,177.6" fill="none" stroke="#102a43" stroke-width="3"/><polyline points="31.4,176.5 34.7,176.5 38.1,172.1 38.1,176.5 41.5,176.5 41.5,176.5 44.9,177.6 44.9,172.1 48.2,178.7 48.2,176.5 48.2,176.5 51.6,174.9 51.6,177.6 51.6,176.5 55.0,177.6 55.0,178.7 55.0,172.1 58.3,171.1 58.3,174.9 58.3,176.5 61.7,172.7 61.7,177.6 61.7,177.6 65.1,173.8 65.1,171.1 65.1,178.7 68.5,172.7 68.5,172.7 68.5,174.9 71.8,167.3 71.8,173.8 71.8,177.6 75.2,174.9 75.2,172.7 75.2,171.1 78.6,176.5 78.6,167.3 78.6,172.7 81.9,176.5 81.9,174.9 81.9,173.8 85.3,178.7 85.3,176.5 85.3,172.7 88.7,181.4 88.7,176.5 88.7,167.3 92.1,177.6 92.1,178.7 92.1,174.9 95.4,168.9 95.4,181.4 95.4,176.5 98.8,177.6 98.8,177.6 98.8,176.5 102.2,182.5 102.2,168.9 102.2,178.7 105.5,176.5 105.5,177.6 105.5,181.4 108.9,179.8 108.9,182.5 108.9,177.6 112.3,178.7 112.3,176.5 112.3,168.9 115.7,174.9 115.7,179.8 115.7,177.6 119.0,174.9 119.0,178.7 119.0,182.5 122.4,176.5 122.4,174.9 122.4,176.5 125.8,172.7 125.8,174.9 125.8,179.8 129.2,173.8 129.2,176.5 129.2,178.7 132.5,174.9 132.5,172.7 132.5,174.9 135.9,176.5 135.9,173.8 135.9,174.9 139.3,174.9 139.3,174.9 139.3,176.5 142.6,156.9 142.6,176.5 142.6,172.7 146.0,142.2 146.0,174.9 146.0,173.8 149.4,147.7 149.4,156.9 149.4,174.9 152.8,133.5 152.8,142.2 152.8,176.5 156.1,141.1 156.1,147.7 156.1,174.9 159.5,125.4 159.5,133.5 159.5,156.9 162.9,142.2 162.9,141.1 162.9,142.2 166.2,135.2 166.2,125.4 166.2,147.7 169.6,134.1 169.6,142.2 169.6,133.5 173.0,122.6 173.0,135.2 173.0,141.1 176.4,128.6 176.4,134.1 176.4,125.4 179.7,117.8 179.7,122.6 179.7,142.2 183.1,112.9 183.1,128.6 183.1,135.2 186.5,108.0 186.5,117.8 186.5,134.1 189.8,120.5 189.8,112.9 189.8,122.6 193.2,123.7 193.2,108.0 193.2,128.6 196.6,104.2 196.6,120.5 196.6,117.8 200.0,86.2 200.0,123.7 200.0,112.9 203.3,103.1 203.3,104.2 203.3,108.0 206.7,96.0 206.7,86.2 206.7,120.5 210.1,78.6 210.1,103.1 210.1,123.7 213.4,82.9 213.4,96.0 213.4,104.2 216.8,92.2 216.8,78.6 216.8,86.2 220.2,85.1 220.2,82.9 220.2,103.1 223.6,81.9 223.6,92.2 223.6,96.0 226.9,79.1 226.9,85.1 226.9,78.6 230.3,90.0 230.3,81.9 230.3,82.9 233.7,94.9 233.7,79.1 233.7,92.2 237.0,98.7 237.0,90.0 237.0,85.1 240.4,80.2 240.4,94.9 240.4,81.9 243.8,93.3 243.8,98.7 243.8,79.1 247.2,71.0 247.2,80.2 247.2,90.0 250.5,82.9 250.5,93.3 250.5,94.9 253.9,94.9 253.9,71.0 253.9,98.7 257.3,90.0 257.3,82.9 257.3,80.2 260.6,72.1 260.6,94.9 260.6,93.3 264.0,106.9 264.0,90.0 264.0,71.0 267.4,96.0 267.4,72.1 267.4,82.9 270.8,87.8 270.8,106.9 270.8,94.9 274.1,93.8 274.1,96.0 274.1,90.0 277.5,75.9 277.5,87.8 277.5,72.1 280.9,86.2 280.9,93.8 280.9,106.9 284.3,54.1 284.3,75.9 284.3,96.0 287.6,81.9 287.6,86.2 287.6,87.8 291.0,73.1 291.0,54.1 291.0,93.8 294.4,61.2 294.4,81.9 294.4,75.9 297.7,63.9 297.7,73.1 297.7,86.2 301.1,61.2 301.1,61.2 301.1,54.1 304.5,61.2 304.5,63.9 304.5,81.9 307.9,74.2 307.9,61.2 307.9,73.1 311.2,68.3 311.2,61.2 311.2,61.2 314.6,69.9 314.6,74.2 314.6,63.9 318.0,66.1 318.0,68.3 318.0,61.2 321.3,60.1 321.3,69.9 321.3,61.2 324.7,69.9 324.7,66.1 324.7,74.2 328.1,72.1 328.1,60.1 328.1,68.3 331.5,79.1 331.5,69.9 331.5,69.9 334.8,69.9 334.8,72.1 334.8,66.1 338.2,60.1 338.2,79.1 338.2,60.1 341.6,75.9 341.6,69.9 341.6,69.9 344.9,71.0 344.9,60.1 344.9,72.1 348.3,62.3 348.3,75.9 348.3,79.1 351.7,59.0 351.7,71.0 351.7,69.9 355.1,49.2 355.1,62.3 355.1,60.1 358.4,49.2 358.4,59.0 358.4,75.9 361.8,36.2 361.8,49.2 361.8,71.0 365.2,28.0 365.2,49.2 365.2,62.3 368.5,53.0 368.5,36.2 368.5,59.0 371.9,56.3 371.9,28.0 371.9,49.2 375.3,46.0 375.3,53.0 375.3,49.2 378.7,36.7 378.7,56.3 378.7,36.2 382.0,41.1 382.0,46.0 382.0,28.0 385.4,53.0 385.4,36.7 385.4,53.0 388.8,35.1 388.8,41.1 388.8,56.3 392.1,65.0 392.1,53.0 392.1,46.0 395.5,57.4 395.5,35.1 395.5,36.7 398.9,48.1 398.9,65.0 398.9,41.1 402.3,56.3 402.3,57.4 402.3,53.0 405.6,34.0 405.6,48.1 405.6,35.1 409.0,60.1 409.0,56.3 409.0,65.0 412.4,71.0 412.4,34.0 412.4,57.4 415.7,59.0 415.7,60.1 415.7,48.1 419.1,43.8 419.1,71.0 419.1,56.3 422.5,62.3 422.5,59.0 422.5,34.0 425.9,62.3 425.9,43.8 425.9,60.1 429.2,60.1 429.2,62.3 429.2,71.0 432.6,58.5 432.6,62.3 432.6,59.0 436.0,65.0 436.0,60.1 436.0,43.8 439.4,63.9 439.4,58.5 439.4,62.3 442.7,63.9 442.7,65.0 442.7,62.3 446.1,53.0 446.1,63.9 446.1,60.1 449.5,60.1 449.5,63.9 449.5,58.5 452.8,68.3 452.8,53.0 452.8,65.0 456.2,46.0 456.2,60.1 456.2,63.9 459.6,67.2 459.6,68.3 459.6,63.9 463.0,49.2 463.0,46.0 463.0,53.0 466.3,41.1 466.3,67.2 466.3,60.1 469.7,68.3 469.7,49.2 469.7,68.3 473.1,59.0 473.1,41.1 473.1,46.0 476.4,44.9 476.4,68.3 476.4,67.2 479.8,42.1 479.8,59.0 479.8,49.2 483.2,46.0 483.2,44.9 483.2,41.1 486.6,69.9 486.6,42.1 486.6,68.3 489.9,82.9 489.9,46.0 489.9,59.0 493.3,91.1 493.3,69.9 493.3,44.9 496.7,75.3 496.7,82.9 496.7,42.1 500.0,82.9 500.0,91.1 500.0,46.0 503.4,67.2 503.4,75.3 503.4,69.9 506.8,53.0 506.8,82.9 506.8,82.9 510.2,58.5 510.2,67.2 510.2,91.1 513.5,157.5 513.5,53.0 513.5,75.3 516.9,171.1 516.9,58.5 516.9,82.9 520.3,164.5 520.3,157.5 520.3,67.2 523.6,171.1 523.6,171.1 523.6,53.0 527.0,172.7 527.0,164.5 527.0,58.5 530.4,168.9 530.4,171.1 530.4,157.5 533.8,174.9 533.8,172.7 533.8,171.1 537.1,174.9 537.1,168.9 537.1,164.5 540.5,173.8 540.5,174.9 540.5,171.1 543.9,172.1 543.9,174.9 543.9,172.7 547.2,174.9 547.2,173.8 547.2,168.9 550.6,167.3 550.6,172.1 550.6,174.9 554.0,167.3 554.0,174.9 554.0,174.9 557.4,166.2 557.4,167.3 557.4,173.8 560.7,173.8 560.7,167.3 560.7,172.1 564.1,172.1 564.1,166.2 564.1,174.9 567.5,172.1 567.5,173.8 567.5,167.3 570.8,172.7 570.8,172.1 570.8,167.3 574.2,172.1 574.2,172.1 574.2,166.2 577.6,176.5 577.6,172.7 577.6,173.8 581.0,171.1 581.0,172.1 581.0,172.1 584.3,177.6 584.3,176.5 584.3,172.1 587.7,178.7 587.7,171.1 587.7,172.7 591.1,176.5 591.1,177.6 591.1,172.1 594.5,174.9 594.5,178.7 594.5,176.5 597.8,179.8 597.8,176.5 597.8,171.1 601.2,177.6 601.2,174.9 601.2,177.6 604.6,177.6 604.6,179.8 604.6,178.7 607.9,176.5 607.9,177.6 607.9,176.5 611.3,181.4 611.3,177.6 611.3,174.9 614.7,181.4 614.7,176.5 614.7,179.8 618.1,181.4 618.1,181.4 618.1,177.6 621.4,176.5 621.4,181.4 621.4,177.6 624.8,178.7 624.8,181.4 624.8,176.5 628.2,176.5 628.2,176.5 628.2,181.4 631.5,176.5 631.5,178.7 631.5,181.4 634.9,173.8 634.9,176.5 634.9,181.4 638.3,172.1 638.3,176.5 638.3,176.5 641.7,177.6 641.7,173.8 641.7,178.7 645.0,176.5 645.0,172.1 645.0,176.5 648.4,172.1 648.4,177.6 648.4,176.5 651.8,177.6 651.8,176.5 651.8,173.8 655.1,173.8 655.1,172.1 655.1,172.1 658.5,177.6 658.5,177.6 658.5,177.6 661.9,179.8 661.9,173.8 661.9,176.5 665.3,177.6 665.3,177.6 665.3,172.1 668.6,176.5 668.6,179.8 668.6,177.6 672.0,176.5 672.0,177.6 672.0,173.8" fill="none" stroke="#2d6cdf" stroke-width="2" opacity="0.8"/><polyline points="31.4,177.6 34.7,177.6 38.1,175.1 38.1,177.6 41.5,175.1 41.5,177.6 44.9,175.4 44.9,175.1 48.2,177.6 48.2,175.1 48.2,177.6 51.6,177.0 51.6,175.4 51.6,177.6 55.0,177.0 55.0,177.6 55.0,175.1 58.3,174.5 58.3,177.0 58.3,175.1 61.7,173.8 61.7,177.0 61.7,175.4 65.1,172.5 65.1,174.5 65.1,177.6 68.5,173.1 68.5,173.8 68.5,177.0 71.8,171.2 71.8,172.5 71.8,177.0 75.2,171.6 75.2,173.1 75.2,174.5 78.6,172.9 78.6,171.2 78.6,173.8 81.9,176.0 81.9,171.6 81.9,172.5 85.3,177.2 85.3,172.9 85.3,173.1 88.7,178.9 88.7,176.0 88.7,171.2 92.1,179.2 92.1,177.2 92.1,171.6 95.4,176.0 95.4,178.9 95.4,172.9 98.8,174.7 98.8,179.2 98.8,176.0 102.2,176.3 102.2,176.0 102.2,177.2 105.5,178.9 105.5,174.7 105.5,178.9 108.9,179.6 108.9,176.3 108.9,179.2 112.3,178.3 112.3,178.9 112.3,176.0 115.7,177.8 115.7,179.6 115.7,174.7 119.0,176.1 119.0,178.3 119.0,176.3 122.4,175.4 122.4,177.8 122.4,178.9 125.8,174.7 125.8,176.1 125.8,179.6 129.2,174.3 129.2,175.4 129.2,178.3 132.5,173.8 132.5,174.7 132.5,177.8 135.9,175.1 135.9,174.3 135.9,176.1 139.3,175.4 139.3,173.8 139.3,175.4 142.6,169.4 142.6,175.1 142.6,174.7 146.0,158.0 146.0,175.4 146.0,174.3 149.4,148.9 149.4,169.4 149.4,173.8 152.8,141.1 152.8,158.0 152.8,175.1 156.1,140.8 156.1,148.9 156.1,175.4 159.5,133.3 159.5,141.1 159.5,169.4 162.9,136.2 162.9,140.8 162.9,158.0 166.2,134.3 166.2,133.3 166.2,148.9 169.6,137.2 169.6,136.2 169.6,141.1 173.0,130.6 173.0,134.3 173.0,140.8 176.4,128.5 176.4,137.2 176.4,133.3 179.7,123.0 179.7,130.6 179.7,136.2 183.1,119.7 183.1,128.5 183.1,134.3 186.5,112.9 186.5,123.0 186.5,137.2 189.8,113.8 189.8,119.7 189.8,130.6 193.2,117.4 193.2,112.9 193.2,128.5 196.6,116.1 196.6,113.8 196.6,123.0 200.0,104.7 200.0,117.4 200.0,119.7 203.3,97.8 203.3,116.1 203.3,112.9 206.7,95.1 206.7,104.7 206.7,113.8 210.1,92.6 210.1,97.8 210.1,117.4 213.4,85.8 213.4,95.1 213.4,116.1 216.8,84.6 216.8,92.6 216.8,104.7 220.2,86.7 220.2,85.8 220.2,97.8 223.6,86.4 223.6,84.6 223.6,95.1 226.9,82.0 226.9,86.7 226.9,92.6 230.3,83.7 230.3,86.4 230.3,85.8 233.7,88.0 233.7,82.0 233.7,84.6 237.0,94.5 237.0,83.7 237.0,86.7 240.4,91.3 240.4,88.0 240.4,86.4 243.8,90.7 243.8,94.5 243.8,82.0 247.2,81.5 247.2,91.3 247.2,83.7 250.5,82.4 250.5,90.7 250.5,88.0 253.9,82.9 253.9,81.5 253.9,94.5 257.3,89.3 257.3,82.4 257.3,91.3 260.6,85.7 260.6,82.9 260.6,90.7 264.0,89.6 264.0,89.3 264.0,81.5 267.4,91.6 267.4,85.7 267.4,82.4 270.8,96.9 270.8,89.6 270.8,82.9 274.1,92.6 274.1,91.6 274.1,89.3 277.5,85.8 277.5,96.9 277.5,85.7 280.9,85.3 280.9,92.6 280.9,89.6 284.3,72.1 284.3,85.8 284.3,91.6 287.6,74.1 287.6,85.3 287.6,96.9 291.0,69.7 291.0,72.1 291.0,92.6 294.4,72.1 294.4,74.1 294.4,85.8 297.7,66.1 297.7,69.7 297.7,85.3 301.1,62.1 301.1,72.1 301.1,72.1 304.5,62.1 304.5,66.1 304.5,74.1 307.9,65.5 307.9,62.1 307.9,69.7 311.2,67.9 311.2,62.1 311.2,72.1 314.6,70.8 314.6,65.5 314.6,66.1 318.0,68.1 318.0,67.9 318.0,62.1 321.3,65.4 321.3,70.8 321.3,62.1 324.7,65.4 324.7,68.1 324.7,65.5 328.1,67.3 328.1,65.4 328.1,67.9 331.5,73.7 331.5,65.4 331.5,70.8 334.8,73.7 334.8,67.3 334.8,68.1 338.2,69.7 338.2,73.7 338.2,65.4 341.6,68.6 341.6,73.7 341.6,65.4 344.9,69.0 344.9,69.7 344.9,67.3 348.3,69.7 348.3,68.6 348.3,73.7 351.7,64.1 351.7,69.0 351.7,73.7 355.1,56.8 355.1,69.7 355.1,69.7 358.4,52.5 358.4,64.1 358.4,68.6 361.8,44.9 361.8,56.8 361.8,69.0 365.2,37.8 365.2,52.5 365.2,69.7 368.5,39.1 368.5,44.9 368.5,64.1 371.9,45.8 371.9,37.8 371.9,56.8 375.3,51.8 375.3,39.1 375.3,52.5 378.7,46.3 378.7,45.8 378.7,44.9 382.0,41.2 382.0,51.8 382.0,37.8 385.4,43.6 385.4,46.3 385.4,39.1 388.8,43.0 388.8,41.2 388.8,45.8 392.1,51.0 392.1,43.6 392.1,51.8 395.5,52.5 395.5,43.0 395.5,46.3 398.9,56.8 398.9,51.0 398.9,41.2 402.3,53.9 402.3,52.5 402.3,43.6 405.6,46.1 405.6,56.8 405.6,43.0 409.0,50.1 409.0,53.9 409.0,51.0 412.4,55.0 412.4,46.1 412.4,52.5 415.7,63.4 415.7,50.1 415.7,56.8 419.1,57.9 419.1,55.0 419.1,53.9 422.5,55.0 422.5,63.4 422.5,46.1 425.9,56.1 425.9,57.9 425.9,50.1 429.2,61.5 429.2,55.0 429.2,55.0 432.6,60.3 432.6,56.1 432.6,63.4 436.0,61.2 436.0,61.5 436.0,57.9 439.4,62.5 439.4,60.3 439.4,55.0 442.7,64.3 442.7,61.2 442.7,56.1 446.1,60.3 446.1,62.5 446.1,61.5 449.5,59.0 449.5,64.3 449.5,60.3 452.8,60.5 452.8,60.3 452.8,61.2 456.2,58.1 456.2,59.0 456.2,62.5 459.6,60.5 459.6,60.5 459.6,64.3 463.0,54.1 463.0,58.1 463.0,60.3 466.3,52.5 466.3,60.5 466.3,59.0 469.7,52.8 469.7,54.1 469.7,60.5 473.1,56.1 473.1,52.5 473.1,58.1 476.4,57.4 476.4,52.8 476.4,60.5 479.8,48.7 479.8,56.1 479.8,54.1 483.2,44.3 483.2,57.4 483.2,52.5 486.6,52.7 486.6,48.7 486.6,52.8 489.9,66.3 489.9,44.3 489.9,56.1 493.3,81.3 493.3,52.7 493.3,57.4 496.7,83.1 496.7,66.3 496.7,48.7 500.0,83.1 500.0,81.3 500.0,44.3 503.4,75.1 503.4,83.1 503.4,52.7 506.8,67.7 506.8,83.1 506.8,66.3 510.2,59.5 510.2,75.1 510.2,81.3 513.5,89.6 513.5,67.7 513.5,83.1 516.9,129.0 516.9,59.5 516.9,83.1 520.3,164.4 520.3,89.6 520.3,75.1 523.6,168.9 523.6,129.0 523.6,67.7 527.0,169.4 527.0,164.4 527.0,59.5 530.4,170.9 530.4,168.9 530.4,89.6 533.8,172.1 533.8,169.4 533.8,129.0 537.1,172.9 537.1,170.9 537.1,164.4 540.5,174.5 540.5,172.1 540.5,168.9 543.9,173.6 543.9,172.9 543.9,169.4 547.2,173.6 547.2,174.5 547.2,170.9 550.6,171.4 550.6,173.6 550.6,172.1 554.0,169.8 554.0,173.6 554.0,172.9 557.4,166.9 557.4,171.4 557.4,174.5 560.7,169.1 560.7,169.8 560.7,173.6 564.1,170.7 564.1,166.9 564.1,173.6 567.5,172.7 567.5,169.1 567.5,171.4 570.8,172.3 570.8,170.7 570.8,169.8 574.2,172.3 574.2,172.7 574.2,166.9 577.6,173.8 577.6,172.3 577.6,169.1 581.0,173.2 581.0,172.3 581.0,170.7 584.3,175.1 584.3,173.8 584.3,172.7 587.7,175.8 587.7,173.2 587.7,172.3 591.1,177.6 591.1,175.1 591.1,172.3 594.5,176.7 594.5,175.8 594.5,173.8 597.8,177.0 597.8,177.6 597.8,173.2 601.2,177.4 601.2,176.7 601.2,175.1 604.6,178.3 604.6,177.0 604.6,175.8 607.9,177.2 607.9,177.4 607.9,177.6 611.3,178.5 611.3,178.3 611.3,176.7 614.7,179.8 614.7,177.2 614.7,177.0 618.1,181.4 618.1,178.5 618.1,177.4 621.4,179.8 621.4,179.8 621.4,178.3 624.8,178.9 624.8,181.4 624.8,177.2 628.2,177.2 628.2,179.8 628.2,178.5 631.5,177.2 631.5,178.9 631.5,179.8 634.9,175.6 634.9,177.2 634.9,181.4 638.3,174.1 638.3,177.2 638.3,179.8 641.7,174.5 641.7,175.6 641.7,178.9 645.0,175.4 645.0,174.1 645.0,177.2 648.4,175.4 648.4,174.5 648.4,177.2 651.8,175.4 651.8,175.4 651.8,175.6 655.1,174.5 655.1,175.4 655.1,174.1 658.5,176.3 658.5,175.4 658.5,174.5 661.9,177.0 661.9,174.5 661.9,175.4 665.3,178.3 665.3,176.3 665.3,175.4 668.6,178.0 668.6,177.0 668.6,175.4 672.0,176.9 672.0,178.3 672.0,174.5" fill="none" stroke="#5f9f58" stroke-width="2" opacity="0.8"/><polyline points="31.4,175.9 34.7,175.2 38.1,171.9 38.1,173.5 41.5,173.4 41.5,172.1 44.9,175.7 44.9,169.2 48.2,177.2 48.2,171.3 48.2,169.8 51.6,175.1 51.6,174.9 51.6,168.8 55.0,175.0 55.0,175.0 55.0,166.0 58.3,171.1 58.3,172.1 58.3,167.7 61.7,170.9 61.7,172.0 61.7,170.3 65.1,171.6 65.1,168.4 65.1,170.9 68.5,171.5 68.5,168.3 68.5,168.8 71.8,168.1 71.8,170.4 71.8,168.7 75.2,171.0 75.2,169.4 75.2,165.0 78.6,173.9 78.6,165.2 78.6,165.5 81.9,175.8 81.9,169.5 81.9,166.0 85.3,177.1 85.3,173.3 85.3,165.7 88.7,178.5 88.7,173.2 88.7,162.3 92.1,177.3 92.1,174.3 92.1,166.3 95.4,170.6 95.4,175.9 95.4,168.3 98.8,173.1 98.8,174.2 98.8,169.2 102.2,178.6 102.2,166.5 102.2,170.3 105.5,178.2 105.5,171.8 105.5,172.0 108.9,178.9 108.9,179.7 108.9,170.6 112.3,176.3 112.3,176.1 112.3,165.0 115.7,174.5 115.7,176.7 115.7,168.9 119.0,173.9 119.0,173.7 119.0,174.3 122.4,173.8 122.4,171.4 122.4,172.6 125.8,172.3 125.8,171.8 125.8,174.4 129.2,172.4 129.2,172.0 129.2,170.0 132.5,173.1 132.5,169.8 132.5,168.4 135.9,174.5 135.9,170.1 135.9,168.7 139.3,174.1 139.3,172.0 139.3,168.1 142.6,161.0 142.6,172.6 142.6,165.9 146.0,144.9 146.0,171.3 146.0,166.8 149.4,142.7 149.4,155.2 149.4,168.7 152.8,135.2 152.8,138.1 152.8,168.5 156.1,139.3 156.1,141.8 156.1,167.1 159.5,128.5 159.5,135.2 159.5,153.9 162.9,135.6 162.9,139.2 162.9,138.7 166.2,135.5 166.2,126.2 166.2,139.6 169.6,133.5 169.6,133.5 169.6,132.0 173.0,125.1 173.0,135.3 173.0,136.5 176.4,123.4 176.4,127.7 176.4,122.7 179.7,119.7 179.7,120.0 179.7,130.7 183.1,114.5 183.1,118.7 183.1,129.6 186.5,108.8 186.5,118.8 186.5,125.5 189.8,115.5 189.8,112.3 189.8,117.6 193.2,122.7 193.2,107.8 193.2,116.4 196.6,111.8 196.6,117.6 196.6,116.7 200.0,91.8 200.0,125.5 200.0,113.5 203.3,94.7 203.3,108.3 203.3,107.5 206.7,95.9 206.7,84.0 206.7,116.7 210.1,87.3 210.1,95.4 210.1,121.9 213.4,82.4 213.4,99.8 213.4,110.3 216.8,86.4 216.8,85.5 216.8,88.2 220.2,88.7 220.2,81.0 220.2,96.1 223.6,85.8 223.6,89.3 223.6,97.2 226.9,78.9 226.9,90.7 226.9,88.6 230.3,85.4 230.3,84.9 230.3,83.2 233.7,94.5 233.7,76.6 233.7,88.6 237.0,100.2 237.0,86.0 237.0,91.1 240.4,87.3 240.4,98.4 240.4,87.9 243.8,89.7 243.8,102.6 243.8,78.3 247.2,77.5 247.2,83.8 247.2,85.7 250.5,81.7 250.5,89.1 250.5,97.9 253.9,92.1 253.9,79.8 253.9,104.9 257.3,92.8 257.3,84.1 257.3,87.5 260.6,82.2 260.6,100.2 260.6,93.6 264.0,96.4 264.0,95.1 264.0,84.3 267.4,97.9 267.4,80.7 267.4,89.9 270.8,95.0 270.8,100.7 270.8,99.6 274.1,93.6 274.1,103.2 274.1,97.3 277.5,79.2 277.5,92.2 277.5,87.2 280.9,85.8 280.9,94.1 280.9,104.1 284.3,65.1 284.3,78.5 284.3,102.1 287.6,75.3 287.6,88.9 287.6,97.6 291.0,75.5 291.0,67.2 291.0,97.3 294.4,67.6 294.4,79.0 294.4,84.0 297.7,67.0 297.7,83.0 297.7,93.2 301.1,58.8 301.1,65.2 301.1,73.7 304.5,63.1 304.5,70.4 304.5,84.7 307.9,72.2 307.9,58.0 307.9,81.9 311.2,70.7 311.2,65.5 311.2,71.0 314.6,72.4 314.6,76.8 314.6,76.3 318.0,67.9 318.0,71.7 318.0,60.0 321.3,63.5 321.3,72.9 321.3,68.2 324.7,68.5 324.7,68.1 324.7,78.4 328.1,72.5 328.1,65.5 328.1,73.1 331.5,80.5 331.5,72.3 331.5,77.9 334.8,75.6 334.8,77.4 334.8,71.8 338.2,65.1 338.2,85.2 338.2,73.0 341.6,72.3 341.6,77.4 341.6,75.8 344.9,72.7 344.9,64.1 344.9,80.0 348.3,69.2 348.3,77.8 348.3,89.4 351.7,62.4 351.7,77.8 351.7,82.6 355.1,52.1 355.1,70.5 355.1,72.4 358.4,51.7 358.4,63.7 358.4,83.1 361.8,41.9 361.8,53.5 361.8,80.2 365.2,32.5 365.2,56.4 365.2,77.0 368.5,46.4 368.5,45.1 368.5,70.2 371.9,56.2 371.9,33.6 371.9,60.3 375.3,54.6 375.3,53.7 375.3,63.2 378.7,42.0 378.7,63.8 378.7,51.0 382.0,38.2 382.0,55.0 382.0,40.9 385.4,50.3 385.4,38.3 385.4,55.8 388.8,44.0 388.8,38.2 388.8,63.9 392.1,60.3 392.1,57.5 392.1,61.0 395.5,60.2 395.5,47.0 395.5,45.4 398.9,55.7 398.9,65.8 398.9,44.2 402.3,58.2 402.3,66.2 402.3,60.7 405.6,39.7 405.6,55.4 405.6,52.4 409.0,55.9 409.0,63.8 409.0,71.6 412.4,69.2 412.4,39.7 412.4,68.8 415.7,67.4 415.7,62.2 415.7,65.3 419.1,54.4 419.1,80.8 419.1,72.5 422.5,55.7 422.5,70.0 422.5,47.4 425.9,63.2 425.9,53.4 425.9,68.4 429.2,65.5 429.2,58.5 429.2,81.9 432.6,62.7 432.6,73.0 432.6,77.0 436.0,63.8 436.0,68.8 436.0,64.1 439.4,66.5 439.4,65.1 439.4,65.4 442.7,68.0 442.7,67.4 442.7,77.5 446.1,58.7 446.1,71.3 446.1,73.8 449.5,59.2 449.5,73.2 449.5,71.3 452.8,67.2 452.8,60.0 452.8,73.7 456.2,56.3 456.2,61.2 456.2,76.1 459.6,64.5 459.6,74.4 459.6,81.0 463.0,54.2 463.0,58.9 463.0,66.8 466.3,47.0 466.3,68.1 466.3,66.9 469.7,62.6 469.7,57.9 469.7,77.8 473.1,61.2 473.1,46.2 473.1,66.8 476.4,55.3 476.4,71.8 476.4,74.6 479.8,44.9 479.8,66.1 479.8,62.0 483.2,43.5 483.2,54.3 483.2,55.6 486.6,65.3 486.6,44.7 486.6,75.4 489.9,82.4 489.9,47.8 489.9,68.0 493.3,93.7 493.3,75.8 493.3,62.3 496.7,82.9 496.7,90.4 496.7,52.6 500.0,82.0 500.0,97.3 500.0,54.1 503.4,72.6 503.4,79.0 503.4,77.6 506.8,59.4 506.8,81.2 506.8,89.7 510.2,59.3 510.2,76.5 510.2,101.1 513.5,128.2 513.5,59.2 513.5,85.0 516.9,171.9 516.9,65.9 516.9,90.0 520.3,179.8 520.3,152.6 520.3,84.4 523.6,172.1 523.6,192.0 523.6,68.2 527.0,164.7 527.0,173.2 527.0,72.8 530.4,171.4 530.4,162.6 530.4,147.2 533.8,176.4 533.8,158.8 533.8,181.3 537.1,176.3 537.1,174.3 537.1,179.1 540.5,177.5 540.5,183.1 540.5,169.3 543.9,176.6 543.9,182.2 543.9,163.5 547.2,176.8 547.2,184.0 547.2,178.0 550.6,168.8 550.6,184.4 550.6,187.6 554.0,166.3 554.0,184.6 554.0,185.3 557.4,165.0 557.4,167.5 557.4,189.4 560.7,169.9 560.7,163.7 560.7,191.1 564.1,171.9 564.1,164.3 564.1,190.6 567.5,171.6 567.5,169.7 567.5,165.9 570.8,171.0 570.8,171.2 570.8,161.7 574.2,170.2 574.2,168.7 574.2,161.8 577.6,174.0 577.6,168.2 577.6,165.8 581.0,171.4 581.0,167.3 581.0,166.7 584.3,174.5 584.3,172.6 584.3,166.0 587.7,176.8 587.7,169.0 587.7,164.7 591.1,176.3 591.1,172.2 591.1,163.9 594.5,174.9 594.5,176.4 594.5,168.8 597.8,176.1 597.8,173.9 597.8,165.6 601.2,176.8 601.2,172.8 601.2,168.9 604.6,177.0 604.6,174.2 604.6,172.4 607.9,175.5 607.9,175.5 607.9,171.1 611.3,178.2 611.3,174.7 611.3,170.5 614.7,180.1 614.7,173.4 614.7,170.7 618.1,180.6 618.1,176.8 618.1,171.7 621.4,176.6 621.4,178.8 621.4,171.8 624.8,176.1 624.8,178.4 624.8,170.2 628.2,175.3 628.2,173.2 628.2,173.3 631.5,175.4 631.5,173.1 631.5,174.4 634.9,173.3 634.9,173.8 634.9,175.3 638.3,171.0 638.3,173.5 638.3,170.1 641.7,174.4 641.7,171.0 641.7,170.0 645.0,175.2 645.0,168.2 645.0,170.1 648.4,172.6 648.4,173.4 648.4,170.3 651.8,174.3 651.8,173.9 651.8,167.4 655.1,172.4 655.1,168.8 655.1,165.1 658.5,175.6 658.5,171.7 658.5,169.3 661.9,177.6 661.9,169.8 661.9,169.5 665.3,176.7 665.3,173.5 665.3,165.4 668.6,175.9 668.6,176.2 668.6,167.8 672.0,174.6 672.0,173.6 672.0,165.4" fill="none" stroke="#b7791f" stroke-width="2" opacity="0.8"/></svg>